<?xml version="1.0" encoding="UTF-8"?>
<svg id="Calque_1" data-name="Calque 1" xmlns="http://www.w3.org/2000/svg" xmlns:xlink="http://www.w3.org/1999/xlink" viewBox="0 0 548.44 308.5">
  <defs>
    <style>
      .cls-1 {
        fill: #a4c520;
      }

      .cls-2 {
        fill: #fff;
      }

      .cls-3 {
        fill: none;
      }

      .cls-4 {
        clip-path: url(#clippath-1);
      }

      .cls-5 {
        clip-path: url(#clippath-2);
      }

      .cls-6 {
        clip-path: url(#clippath);
      }
    </style>
    <clipPath id="clippath">
      <rect class="cls-3" width="548.44" height="308.5"/>
    </clipPath>
    <clipPath id="clippath-1">
      <rect class="cls-3" width="548.44" height="308.5"/>
    </clipPath>
    <clipPath id="clippath-2">
      <rect class="cls-3" width="548.44" height="308.5"/>
    </clipPath>
  </defs>
  <g class="cls-6">
    <g class="cls-4">
      <path class="cls-2" d="M206.99,232.38l7.55.6,7.88-6.83,6.19,1.54,13.91,10.38c1.28,4.04,2.09,8,3.59,11.91.85,2.23,2.6,4.06,3.73,6.19l6.52-3.18c5.84-8.88,3.36-7.69,12.77-13.81,2.64-.9,5.48-.68,8.22-1.27l13.91-13.62,6.56-2.08,1.78-2.29c1.02-.09,2.07.23,3.21.4.79.12,2.37-.24,3.05-.73l7.16-5.09c1.25-.89,2.45-1.77,3.57-2.84l8.01-7.69,9.59-2.63c.21-3.06,1.01-6.02,1.03-9.09.01-3.69-.57-7.21-.76-10.94l3.64-3.76,7.86,1.78,2.87-4.99,1.97-12.89-13.62-9.35-4.79-3.25c-.57-3.02-1.56-5.86-1.91-8.86-.32-2.66.5-5.31.35-8.05l-1.36-3.1,4.7-17.02,2.58-6.61-3.5-1.99c-.18-1.33-.23-2.68-.25-4.23l6.4.99,5.54-6.24-1.51-9.2-20.08-1.75c-2.57-.22-4.85-1.82-7.34-2.41-3.07-.73-3.87-2.67-6.93-1.99-.3.07-.95.42-1.21.34l-3.31-.96,2.38-7.33-2.54-14.01,8.02-7.87-5.76-7.49-19.13,7.88-21.69,2.15,1.65,13.72,6.57,13.98,1.15,3.41-4.26,1.29-3.56,4.99,1.98,2.45c-1.61,2.47-3.3,4.85-5.2,7.14-.95,1.15-2.16,1.72-3.7,1.86-.22-.15-.71-.98-.51-1.29l1.32-2.06-2.22-1.92,1.19-3.71-3.68-3.32-4.25,2.1c-.57-.2-1.21-.46-1.79-.74l1.98-3.03-16.71-23.01-10.59,8.77,14.75,20.13,6.77.96-.48,8.3,3,2.92c-.75.88-.31,1.5.33,2.24.68.8,1.65,2.25.75,3.29-1.05,1.22-3.29.67-4.03-.72-.11-.21-.78-.57-.94-.37l-1.97,2.42-1.97,10.6-6.58,9.82-6.23,3.52,4.97,7.47-16.42,23.46-3.06,6.32-14.78,4.34-.29,17.92-.3,9.65,14.58-.57,7.25,6.4,2.18-1.24-1.03,1.78.3.86c.06.18-.34.54-.49.71l-6.73,7.57-10.32-1.97-2.44,5.16,4.96,9.7ZM228.91,125.5l3.19-6.99-4.86-2.27c.63-3.38.63-6.78,1.56-10,.67-2.33,2.36-4.11,3.18-6.44l-6.73-6.52,3.79-3.52-11.8-11.54-29.16,24.1c.94,4.4,1.05,8.89,2.37,13.01,1,3.12,3.47,5.56,4.8,8.5l9.57,3.77,10.44-2.42,8.5,2.52,5.15-2.21ZM214.07,148.35l7.37-10.09-8.34-9.02-8.71,10.27,1.57,5.09,8.11,3.75ZM190.31,151.58l5.58-6.1-3.32-7.9-7.1,6.91,4.84,7.09Z"/>
    </g>
    <g class="cls-5">
      <path d="M228.91,125.5l-5.15,2.21-8.5-2.51-10.44,2.42-9.57-3.77c-1.33-2.94-3.81-5.39-4.8-8.5-1.32-4.13-1.43-8.61-2.37-13.01l29.16-24.1,11.81,11.54-3.79,3.52,6.73,6.52c-.83,2.33-2.51,4.11-3.18,6.44-.93,3.22-.93,6.62-1.56,10l4.86,2.27-3.19,6.99ZM231.16,118.88l-4.67-2.17c.56-3.51.69-7.09,1.54-10.57.55-2.24,2.31-3.93,3.08-6.19l-6.88-6.65,3.72-3.58-10.72-10.54-28.35,23.46,2.04,12.45,4.9,8.15,9.03,3.59,10.44-2.42,8.43,2.49,4.58-1.96,2.85-6.07Z"/>
      <path d="M214.07,148.35l-8.11-3.75-1.57-5.09,8.71-10.27,8.34,9.02-7.37,10.09ZM213.83,147.43l6.68-9.15-7.36-7.93-7.88,9.28,1.28,4.44,7.28,3.36Z"/>
      <path d="M190.31,151.58l-4.84-7.09,7.1-6.91,3.32,7.9-5.58,6.1ZM190.41,150.34l4.62-4.97-2.72-6.5-5.91,5.75,4.01,5.72Z"/>
      <path class="cls-2" d="M231.16,118.88l-2.85,6.07-4.58,1.96-8.43-2.49-10.44,2.42-9.03-3.59-4.9-8.15-2.04-12.45,28.35-23.46,10.72,10.54-3.72,3.58,6.88,6.65c-.77,2.26-2.54,3.95-3.08,6.19-.85,3.47-.98,7.06-1.54,10.57l4.67,2.17Z"/>
      <polygon class="cls-2" points="213.83 147.43 206.54 144.07 205.26 139.63 213.14 130.36 220.5 138.28 213.83 147.43"/>
      <polygon class="cls-2" points="190.41 150.34 186.41 144.62 192.32 138.87 195.04 145.37 190.41 150.34"/>
      <path d="M206.99,232.38l-4.96-9.7,2.44-5.16,10.32,1.97,6.73-7.57c.15-.17.55-.53.49-.71l-.3-.86,1.03-1.78-2.18,1.24-7.25-6.4-14.58.57.3-9.65.29-17.92,14.78-4.34,3.06-6.32,16.42-23.46-4.97-7.47,6.23-3.52,6.58-9.82,1.97-10.6,1.97-2.42c.16-.19.83.16.94.37.73,1.39,2.98,1.95,4.03.72.9-1.05-.07-2.5-.75-3.29-.64-.74-1.08-1.37-.33-2.24l-3-2.92.48-8.3-6.77-.96-14.75-20.13,10.59-8.77,16.71,23.01-1.98,3.03c.58.28,1.22.54,1.79.74l4.25-2.1,3.68,3.32-1.18,3.71,2.22,1.92-1.32,2.06c-.2.31.29,1.14.51,1.29,1.55-.13,2.75-.7,3.7-1.86,1.89-2.29,3.58-4.67,5.2-7.14l-1.98-2.45,3.56-4.99,4.26-1.29-1.15-3.41-6.57-13.98-1.65-13.72,21.69-2.15,19.13-7.88,5.76,7.49-8.02,7.87,2.54,14.01-2.38,7.33,3.31.96c.26.08.91-.27,1.21-.34,3.06-.67,3.86,1.26,6.93,1.99,2.49.59,4.77,2.19,7.34,2.41l20.08,1.75,1.51,9.2-5.54,6.24-6.4-.99c.02,1.55.07,2.9.25,4.23l3.49,1.99-2.58,6.61-4.7,17.02,1.36,3.1c.15,2.74-.67,5.39-.35,8.05.36,3,1.34,5.84,1.91,8.86l4.79,3.25,13.62,9.35-1.97,12.89-2.87,4.99-7.86-1.78-3.64,3.76c.19,3.73.78,7.25.76,10.94-.01,3.08-.82,6.03-1.03,9.09l-9.59,2.63-8.01,7.69c-1.12,1.07-2.32,1.95-3.57,2.84l-7.16,5.09c-.68.49-2.26.85-3.05.73-1.14-.17-2.19-.5-3.21-.41l-1.78,2.29-6.56,2.08-13.91,13.62c-2.75.59-5.58.37-8.22,1.27-9.41,6.12-6.94,4.94-12.77,13.81l-6.52,3.18c-1.13-2.13-2.87-3.96-3.73-6.19-1.49-3.91-2.31-7.88-3.59-11.91l-13.91-10.38-6.19-1.54-7.88,6.83-7.54-.6ZM248.55,175.4l5.55-5.45-1.13-3.85c1.99-1.96,2.63.14,4.68-1.27.93-.64,2.08-1.41,2.82-2.07l-.2-3.68-3.18-3.88c-.65-.79-2.08-1.19-2.89-1.79.2-1.51.35-2.82.47-4.39.09-1.17,1.53-.82.88-3.78l-1.44.08c-.53.03-1-2.28-2.48-2.65l-.91,1.11c-1.82-1.22-.5-1.91-2.34-4.22-1.15-1.45.57-1.84.6-2.92l-1.58-2.51,1.69-2.26-1.98-1.92c1.09-2.1,2.32-3.97,3.69-5.92.57-.81-.8-1.78.47-2.39,2.17-1.04,4.13-2.02,6.15-3.29l-1.81-1.46,2.12-5.08c3.63-1.23,2.99-.24,5.74-.91l.64-3.01,2.39-.95-.43-4.58,3.82-.75,4.51,3.29,1.55-2.25,1.93.06c.9-.9,1.61-1.57,2.59-2.27,1.35,2.45,1.82,2.77,2.55,5.37l5.57-2.76,1.43-3.48,2.47.66,3.94-1.81c.07-1.75.82-3.12,1.23-4.67.23-.89.1-1.61,1-2.3,1.52-1.16,2.58-2.56,3.65-4.3.87.32,1.58.89,2.37,1.62.63-1.43,1.28-2.7,2.26-3.83,1.34-1.57-.46-1.98.85-4.05,1.22-1.92,3.51-.81,2.76-1.75-.55-.69-1.47.27-1.99.26-1.5-.04-3.33-.7-4.97-1.16l2.56-7.94-2.57-14.09,7.84-7.74-4.99-6.54-18.75,7.72-21.09,2.09,1.59,12.87,6.56,14,1.34,4.05-4.59,1.42-3.22,4.36,1.93,2.47c-1.75,2.79-3.62,5.42-5.79,7.9-1.43,1.63-2.23,1.15-4.23,2.4-.59-.56-1.58-1.67-1.1-2.63.31-.62.77-1.23,1.19-1.88l-2.12-1.72,1.18-3.86-2.97-2.61-4.17,2.09-2.81-1.24,2.15-3.43-15.9-21.93-9.47,7.81,14.12,19.27,7.19,1.11-.5,8.48,3.26,3.42c-.73.71-.58,1.28-.02,1.87,1,1.06,1.7,3.02.54,4.22-.97,1.02-2.85.91-3.98.29l-1.17-1.21-1.55,2-1.89,10.11c-.52,2.79-1.21,1.63-1.92,3.14-.2.44-.4.75-.69,1.08-1.66,1.94-2.61,4.44-4.39,6.26-1.49,1.45-3.72,1.88-5.51,3.26l4.76,7.21-16.62,23.79-3.21,6.58-14.58,4.29-.46,25.49,3.76-1.29-.17-3.17c2.85-2.46,3.34-1.31,6.97-.82l5.68-2.53c4.02-7.23,1.51-4.11,8.36-9.03l3.05,3.8,2.64-1.51,1.99,1.27,4.87-3.05c-.37-2.17-.3-4.13-1.14-6.01l-.9-2c.19-1.23,1.08-2,2.11-2.47.92-.43,1.34-1.49,2.05-1.99,1.29-.91,2.77-1.4,4.16-2.08l5.55,3.82ZM312.52,154.64c.87.1,1.77.26,2.48.43.96,2.74,1.46,3.16,1.23,6.02l2.03,1.79c-.52,1.46-1.01,2.57-1.68,3.99.27.6,1.19,1.22,1.56,1.8.76,1.17,1.31,2.28,2.38,3.22.86.75,1.51,1.57,2.31,2.52l2.62-.99c.9-.34,2.23-2.57,3.83-3.25,3.31,2.39,4.17,2.61,6.44,6.01.6.11,1.16.21,1.67.33l8.22,1.97,2.54-4.62,1.85-12.09-3.49-2.42-14.77-10.05c-.57-3.13-1.66-6.14-2.01-9.32-.29-2.62.51-5.2.38-7.85l-1.41-3.28,4.81-17.42c.57-2.08,1.67-3.79,2.39-5.93l-3.39-1.83-.27-5.56,6.94,1.04,5.02-5.7-1.37-8.21-19.82-1.85c-3.36-.31-6.62-1.67-9.53-3.18l-2.07-1.07c-.44,2.03-1.99.24-3.16,2.18-.44.72-.25,1.46-.18,2.29.09,1-.79,1.84-1.35,2.62-.98,1.39-1.55,3.58-1.95,3.4-.94-.43-.81-1.24-2.27-1.68-.96,1.52-1.9,2.82-3.28,3.79-.92.64-.57,1.38-.84,2.12-.61,1.64-1.26,3.07-1.36,4.96l-4.33,2.01-2.31-.56-1.19,3.03,1.46,4.63c3.46.74,3.83,1.29,6.62,2.97-.36,3.43,3.5,4.12,2.88,7.1-2.04,2.14-1.52,1.92-1.83,5.5l4.1-1.77c1.46,3.14.49,2.37.2,3.16-.56,1.55-1.23,3.7-1.76,5.57l4.72,8.2,3.97,1.04-.49,7.4c-.07,1.01.22,2.24-.16,3.18-2.53,1.92-3.89,1.59-4.79,4.89l-1.09,1.89,4.53,2.07,4.99-4.48ZM264.99,161.42l3.54-5.71c.55.14.98.43,1.51.86l3.68-3.34c.75-.15,1.97-.1,2.52-.63l1.19-1.16,2.24.92,2.05-4.35c1.26.32,1.46,1.39,2.99.6,1.47-.75,1.35,1.14,4.37,2.31,1.57.61,3.22.97,4.73,1.71l8.51,4.17c1.78-1.9,1.44-3.88,2.77-4.75l3.27-2.14.1-3.45.47-6.29-3.77-1.05-4.94-8.55c.57-2.16,1.1-4.12,1.95-6.11.28-.65.61-1.26-.27-1.96l-3.12,1.49c-.28-.08-.76-.29-.96-.46-.21-.17-.12-.87-.09-1.15l.31-2.57c.15-1.27,2.58-1.76,1.2-3.64-1.88-2.55-2.13-1.86-2.7-5.04-3.23-1.86-2.79-1.84-6.39-2.75l-1.47-4.65-6.09,2.9-.6-1.96c-.35-1.16-1.05-2.22-1.73-3.39l-2.25,2.07-1.71-.11-1.8,2.45-4.8-3.46-2.97.67.39,4.46-2.48.89-.59,3.06c-2.78.98-2.49-.28-5.92,1.08l-1.79,4.28,2.07,1.77c-2.09,1.37-4.03,2.34-6.22,3.4-.28.14-.76.54-.92.72.58.9.3,1.41-.16,2.09l-2.85,4.22c-.17.25-.37.94-.18,1.12l.66.64c.32.31.8.82.83,1.18.09,1.15-1.61,1.86-1.31,2.58l1.47,2.39-1.16,1.93c1,1.36,1.44,2.47,1.9,4.25l.95-1.11c1.35.55,2.18,1.48,2.77,2.85l1.92-.07.15,2.91-1.05,1.56-.28,3.75c.62,1.31,2.08.63,3.54,3.09.6,1,1.62,1.9,2.35,2.73.22,1.16-.12,2.47.33,3.69l1.86-1.91,1.98.97ZM250.08,255.23l5.72-2.81c6.54-10.15,3.1-6.91,12.99-14.13l8.2-1.06,13.72-13.47,6.55-2.18,2.11-2.5c1.19-.04,2.62.29,3.79.54.68,1.14,11.54-7.31,11.71-7.47l9.37-8.82,9.27-2.56.95-8.3c.43-3.78-.6-7.49-.85-11.32l3.71-4.04-1.86-.31c-2.52-3.51-2.53-3.25-6.02-5.85-1.5.19-2.27,2.21-3.56,2.87-1.03.52-2.12.89-3.23,1.28-1.15-1.41-2.2-2.56-3.52-3.75-.62-.56-.87-1.57-1.39-2.24-.53-.7-1.28-1.28-1.93-1.94l1.79-4.11-1.95-1.67c.09-2.62.04-3.2-1.08-5.61-.24-.41-1.52-.52-2.01-.37l-4.91,4.38-6-2.72-8.36-4.06c-2.6-1.26-5.27-.97-7.85-4.03l-1.85.61-1.6-.82-2.04,4.27-2.4-.94c-.56.58-2.35,2-2.53,1.93l-.91-.39-3.92,3.63-1.41-.85-3.67,5.79-2-1.08c-1.27,1.62-4.87,4.28-6.48,4.77-.99.3-2.02-.62-3.05.29.33,1.25.74,2.54,1.3,3.78l-6.28,6.12-5.66-3.88c-5.18,1.96-3.83,3.01-6.82,4.61-.95.51-.94,1.64-.32,2.39.46.55.56,1.17.67,1.88l1.7,10.41c-.58.54-1.31,1.2-1.79,1.7-.33.34-.06,1.61.19,1.98,3.63,1.37,3.74.35,5.95,4.25.49.86.36,2.37,1.05,3.05l2.64,2.62,2.31.19,1.61,3.49c-1.52,2.01-2.95,3.85-4.18,6.14l4.41,3.82c-.44,1.89-1.38,3.55-1.25,5.39l.49,7.38-3.53,5.9,1.4,3.39-2.1,4.31c1.12,5.23,2.05,5.67,4.71,10.13M245.09,244.01c.77-1.27,1.26-2.26,1.71-3.32l-1.36-3.37,3.58-5.97c-.18-2.57-.51-5.05-.53-7.62-.01-1.65,1.02-3.27,1.15-4.91l-4.42-3.83c1.38-2.37,2.64-4.2,4.26-6.24l-1.31-2.89-2.23-.16-2.84-2.71c-.58-.97-.65-2.41-1.2-3.48-1.8-3.5-3.04-2.67-6.07-4-.07-.83-.13-1.95-.02-2.62l1.77-1.6-.77-4.5-4.18,2.63c-.57.36-1.26.33-1.71-.12-1.51-1.48-2.38.6-3.92.76l-2.99-3.68c-6.8,4.97-3.68,1.61-7.76,8.71l-6.1,2.76c-2.83-.4-4.33-1.74-6.38.53l.17,3.21c-1.45.55-2.61.87-3.99,1.61l13.55-.57,7.16,6.32,3.15-1.98c.24-.15.92.38.76.6l-1.95,2.75c.22.38.41.76.45,1.03l-7.91,8.89-10.23-1.88-2.06,4.25,4.56,9.04,6.94.51,7.97-6.88,6.63,1.78,14.25,10.64,1.89,6.32Z"/>
      <path class="cls-1" d="M312.52,154.64l-4.99,4.48-4.53-2.07,1.09-1.89c.9-3.3,2.25-2.97,4.79-4.89.38-.95.09-2.18.16-3.18l.49-7.4-3.97-1.04-4.72-8.2c.53-1.88,1.19-4.03,1.76-5.57.29-.79,1.26-.02-.2-3.16l-4.1,1.77c.31-3.58-.21-3.36,1.83-5.5.62-2.98-3.23-3.67-2.88-7.1-2.79-1.68-3.15-2.23-6.62-2.97l-1.46-4.63,1.19-3.03,2.31.56,4.33-2.01c.1-1.89.76-3.32,1.36-4.96.27-.74-.08-1.47.84-2.12,1.38-.96,2.33-2.27,3.28-3.79,1.46.44,1.33,1.25,2.27,1.68.4.18.96-2.01,1.95-3.4.56-.79,1.44-1.63,1.35-2.62-.08-.83-.26-1.57.18-2.29,1.17-1.94,2.73-.15,3.16-2.18l2.07,1.07c2.91,1.51,6.17,2.87,9.53,3.18l19.82,1.85,1.37,8.21-5.02,5.7-6.94-1.04.27,5.56,3.39,1.83c-.72,2.14-1.81,3.85-2.39,5.93l-4.81,17.42,1.41,3.28c.14,2.65-.67,5.23-.38,7.85.35,3.18,1.43,6.19,2.01,9.32l14.77,10.05,3.49,2.42-1.85,12.09-2.54,4.62-8.22-1.97c-.51-.12-1.07-.22-1.67-.33-2.27-3.4-3.13-3.62-6.44-6.01-1.6.68-2.92,2.91-3.83,3.25l-2.62.99c-.8-.95-1.45-1.76-2.31-2.52-1.07-.93-1.62-2.04-2.38-3.22-.38-.59-1.29-1.2-1.56-1.8.67-1.41,1.16-2.52,1.68-3.99l-2.03-1.79c.23-2.87-.26-3.28-1.23-6.02-.71-.18-1.61-.33-2.48-.43"/>
      <path class="cls-1" d="M264.99,161.42l-1.98-.97-1.86,1.91c-.45-1.22-.11-2.52-.33-3.69-.73-.83-1.75-1.73-2.35-2.73-1.46-2.45-2.92-1.78-3.54-3.09l.28-3.75,1.05-1.56-.15-2.91-1.92.07c-.59-1.36-1.42-2.3-2.77-2.85l-.95,1.11c-.46-1.78-.9-2.89-1.9-4.25l1.16-1.93-1.47-2.39c-.3-.72,1.41-1.43,1.31-2.58-.03-.36-.51-.87-.83-1.18l-.66-.64c-.18-.18.01-.87.18-1.12l2.85-4.22c.46-.68.74-1.19.16-2.09.17-.19.64-.59.92-.72,2.19-1.06,4.13-2.03,6.22-3.4l-2.07-1.77,1.79-4.28c3.43-1.36,3.14-.09,5.92-1.08l.59-3.06,2.48-.89-.39-4.46,2.97-.67,4.8,3.46,1.8-2.45,1.71.11,2.25-2.07c.68,1.16,1.38,2.23,1.73,3.39l.6,1.96,6.09-2.9,1.47,4.65c3.6.92,3.16.9,6.39,2.75.57,3.17.83,2.48,2.7,5.04,1.38,1.88-1.05,2.37-1.2,3.64l-.31,2.57c-.03.28-.12.98.09,1.15.21.17.68.38.96.46l3.12-1.49c.88.71.54,1.32.27,1.96-.85,1.99-1.38,3.96-1.95,6.11l4.94,8.55,3.77,1.05-.47,6.29-.1,3.45-3.27,2.14c-1.33.87-.98,2.85-2.77,4.75l-8.51-4.17c-1.51-.74-3.16-1.1-4.73-1.71-3.01-1.16-2.9-3.05-4.37-2.31-1.53.78-1.74-.28-2.99-.6l-2.05,4.35-2.24-.92-1.19,1.16c-.55.54-1.77.48-2.52.63l-3.68,3.34c-.53-.43-.96-.72-1.51-.86l-3.54,5.71Z"/>
      <path class="cls-1" d="M250.08,255.23c-2.66-4.47-3.59-4.9-4.71-10.13l2.1-4.31-1.4-3.39,3.53-5.9-.49-7.38c-.12-1.83.82-3.5,1.25-5.39l-4.41-3.82c1.24-2.29,2.66-4.12,4.18-6.14l-1.61-3.49-2.31-.19-2.64-2.62c-.69-.68-.56-2.19-1.05-3.05-2.21-3.91-2.32-2.88-5.95-4.25-.25-.37-.52-1.64-.19-1.98.48-.49,1.21-1.16,1.79-1.69l-1.7-10.41c-.12-.71-.21-1.33-.67-1.88-.62-.75-.64-1.88.32-2.39,2.99-1.6,1.64-2.65,6.82-4.61l5.66,3.88,6.28-6.12c-.56-1.25-.97-2.54-1.3-3.78,1.03-.91,2.06.02,3.05-.29,1.61-.5,5.21-3.15,6.48-4.77l2,1.08,3.67-5.79,1.41.85,3.92-3.63.91.39c.17.07,1.97-1.35,2.53-1.93l2.4.94,2.04-4.27,1.6.82,1.85-.61c2.58,3.06,5.24,2.77,7.85,4.03l8.36,4.06,6,2.72,4.91-4.38c.49-.15,1.76-.04,2.01.37,1.13,2.41,1.17,2.99,1.08,5.61l1.95,1.66-1.79,4.11c.65.66,1.41,1.24,1.93,1.94.51.68.76,1.68,1.38,2.24,1.32,1.2,2.37,2.34,3.52,3.75,1.11-.39,2.2-.75,3.23-1.28,1.29-.66,2.07-2.67,3.56-2.87,3.49,2.6,3.51,2.34,6.02,5.85l1.86.31-3.71,4.04c.25,3.83,1.28,7.54.85,11.32l-.95,8.3-9.27,2.56-9.37,8.82c-.17.16-11.04,8.61-11.71,7.47-1.17-.25-2.6-.58-3.79-.54l-2.11,2.5-6.55,2.18-13.72,13.47-8.2,1.06c-9.9,7.22-6.45,3.99-12.99,14.13l-5.72,2.81Z"/>
      <path class="cls-1" d="M245.09,244.01l-1.89-6.32-14.25-10.64-6.63-1.78-7.97,6.88-6.94-.51-4.56-9.04,2.06-4.25,10.23,1.88,7.91-8.89c-.04-.26-.23-.64-.45-1.03l1.95-2.75c.16-.22-.52-.75-.76-.6l-3.15,1.98-7.16-6.32-13.55.57c1.38-.73,2.54-1.05,3.99-1.61l-.17-3.21c2.05-2.27,3.54-.92,6.38-.53l6.1-2.76c4.08-7.1.97-3.74,7.76-8.71l2.99,3.68c1.54-.15,2.42-2.24,3.92-.76.46.45,1.14.48,1.71.12l4.18-2.63.77,4.5-1.77,1.6c-.11.67-.05,1.79.02,2.62,3.03,1.33,4.27.5,6.07,4,.55,1.07.62,2.51,1.2,3.48l2.84,2.71,2.23.16,1.31,2.89c-1.62,2.04-2.89,3.87-4.26,6.24l4.42,3.83c-.13,1.64-1.16,3.26-1.15,4.91.02,2.57.35,5.06.53,7.62l-3.58,5.97,1.36,3.37c-.44,1.06-.94,2.05-1.71,3.32"/>
      <path class="cls-2" d="M248.55,175.4l-5.55-3.82c-1.39.68-2.87,1.17-4.16,2.08-.7.5-1.13,1.56-2.05,1.99-1.02.48-1.92,1.25-2.11,2.47l.9,2c.84,1.88.77,3.84,1.14,6.01l-4.87,3.05-1.99-1.27-2.64,1.51-3.06-3.8c-6.84,4.92-4.33,1.8-8.35,9.03l-5.68,2.53c-3.63-.49-4.13-1.63-6.97.82l.17,3.17-3.76,1.29.46-25.49,14.58-4.29,3.21-6.58,16.62-23.79-4.76-7.21c1.79-1.37,4.02-1.81,5.51-3.26,1.78-1.82,2.73-4.32,4.39-6.26.29-.34.48-.64.69-1.08.7-1.51,1.4-.34,1.92-3.14l1.89-10.11,1.55-2,1.17,1.21c1.13.61,3.01.73,3.98-.29,1.15-1.21.46-3.16-.54-4.22-.56-.6-.71-1.16.02-1.87l-3.26-3.42.5-8.48-7.19-1.11-14.12-19.27,9.47-7.81,15.9,21.93-2.15,3.43,2.81,1.24,4.17-2.09,2.97,2.61-1.18,3.86,2.12,1.72c-.43.65-.88,1.25-1.19,1.88-.48.96.51,2.07,1.1,2.63,2-1.26,2.8-.77,4.23-2.4,2.17-2.48,4.03-5.11,5.79-7.9l-1.93-2.47,3.22-4.36,4.59-1.42-1.34-4.05-6.56-14-1.59-12.87,21.09-2.09,18.75-7.72,4.99,6.54-7.84,7.74,2.57,14.09-2.56,7.94c1.64.47,3.47,1.13,4.97,1.17.51.01,1.44-.95,1.99-.26.75.94-1.55-.16-2.76,1.75-1.31,2.07.49,2.49-.85,4.05-.97,1.13-1.62,2.4-2.26,3.83-.79-.73-1.49-1.31-2.37-1.62-1.07,1.74-2.13,3.14-3.65,4.3-.89.68-.77,1.41-1,2.3-.41,1.56-1.16,2.92-1.23,4.67l-3.94,1.81-2.47-.66-1.43,3.48-5.57,2.76c-.73-2.6-1.2-2.92-2.55-5.37-.98.7-1.69,1.37-2.59,2.27l-1.93-.06-1.55,2.25-4.51-3.29-3.82.75.43,4.58-2.39.95-.64,3.01c-2.75.66-2.11-.32-5.74.91l-2.12,5.08,1.81,1.46c-2.03,1.27-3.98,2.26-6.16,3.29-1.26.6.1,1.58-.47,2.39-1.37,1.95-2.59,3.82-3.69,5.92l1.98,1.92-1.69,2.26,1.58,2.51c-.03,1.08-1.75,1.48-.6,2.92,1.84,2.31.51,3,2.34,4.22l.91-1.11c1.49.37,1.95,2.68,2.48,2.65l1.44-.08c.65,2.96-.79,2.6-.88,3.78-.12,1.57-.26,2.88-.47,4.39.82.6,2.25,1,2.89,1.79l3.18,3.88.2,3.68c-.74.66-1.89,1.43-2.82,2.07-2.05,1.41-2.69-.69-4.68,1.27l1.13,3.85-5.54,5.45ZM287.14,76.76c-.3-2.02,1.72-.88,1.66-3.75-.56-.47-1.6-.92-2.32-1.07l-3.99,2.34,1.91,4.54,2.74-2.06Z"/>
      <path d="M287.14,76.76l-2.74,2.06-1.91-4.54,3.99-2.34c.73.15,1.76.6,2.32,1.07.06,2.87-1.96,1.73-1.66,3.75M287.33,74.81c.39-.2,1.04-1.13.73-1.39-.46-.39-1.06-.66-1.53-.86l-3.28,1.95,1.36,3.39c3.1-1.81,1.11-2.28,2.72-3.09"/>
    </g>
  </g>
</svg>