<?xml version="1.0" encoding="UTF-8"?>
<svg id="Calque_1" data-name="Calque 1" xmlns="http://www.w3.org/2000/svg" viewBox="0 0 1181.03 758.03">
  <defs>
    <style>
      .cls-1 {
        fill: #f2f2f2;
        stroke: #000;
        stroke-miterlimit: 10;
      }
    </style>
  </defs>
  <path class="cls-1" d="M43.27,564.73l4.65-10.48-.22-4.16-7.09-9.9-12.84-7.92,2.22-6.14-1.99-9.91,13.29-23.21,9.08-11.71-1.99-2.18-5.09-9.93,3.54-4.57,35.21-32.22,18.6-10.35,9.52-9.96,8.64-4.78,5.76-5.58.89-9.77-3.54-7.98,6.42-16.96,1.33-7.79-5.54-14.19,3.99-13.6,12.62-7.2,28.13-9.01,17.5-13.22,5.98-8.82-3.1-7.01,5.98-8.62,12.18-7.42-.22-6.42,7.75-2.81,16.61-15.46,5.54-8.64,7.53-7.84,17.94-13.07-1.11-9.66,1.55-7.85,8.86-6.04,3.76-5.04,7.75-4.03,2.21-4.23-10.63-10.68-4.87,2.42-31.01,3.02,1.33-4.84,7.09-11.09,6.64-4.03,3.76-8.07,11.74-6.66,1.99-3.23-4.65-14.14,7.09-3.44,13.95,2.83,13.07-2.22,9.97,3.23,10.19-.2-4.87,11.11,1.55,6.26,19.93,9.89,9.97-4.24,14.17-1.21,13.51-.4,8.42-6.87,1.77-7.67,4.87-6.26,5.54,1.82,4.87-6.47-2.44-6.27,6.42-.81.22-6.07-5.09-3.64,9.97-8.3,17.05-8.1,19.27-4.66-3.32,9.72v7.69l9.52,2.83,11.52-2.43,15.28-4.86,8.86-12.55,3.77,2.02,16.83,1.01,3.54,10.53h34.11l11.74-2.63,9.08-9.72,10.63-4.46,4.43-4.66,18.82-2.43,11.07,4.05,3.32,7.49,12.4,4.45,17.5-.2,7.31-1.21,3.32-8.3,8.19-5.47,7.75-.81,7.75,9.72,6.42.81.44-14.99,3.99-9.53-6.64-1.83-12.62,2.03-11.52,6.69-4.65.2-11.96-8.31-5.54-11.97,2.88-5.88,9.3-6.29,1.99-7.71,4.87-8.12,19.05-3.86,1.55-8.13,3.99-2.44,11.52,2.64,1.55,12.6,5.76-.41,1.33-8.33,5.76-1.42,6.42,11.38,8.2.61,1.77,3.86-5.09,9.34,4.43,11.16,11.74-2.64,2.22-7.51,7.09.2,8.64,5.07,5.54,14,7.75,5.88,6.42,1.62,10.41-1.01,9.52-3.04,9.08-6.49,29.01,3.24h14.62l3.54,5.68h9.74l10.19,2.23,71.76,44.95,1.33,6.67,8.2,14.15,9.74,4.44,7.53,6.67-.22,16.35-2.44,5.85-10.19,12.71-3.54,13.1-9.08,10.68-8.42,14.29-6.2,13.08-2.88,12.26-.22,8.04,2.66,7.83,4.43,10.24v8.23l-2.44,5.02-7.09,8.22.22,3.61,14.84,3.21,12.4-.6,4.87,1.4,18.16-1,49.39,15.63,2.44,5.21-1.33,23.81,9.97,9.6,27.9,9.19,10.19,9.59,5.76,3.4,15.06,3.79,8.42-1.8,11.52-5.99,2.66-3.8,2.21-10.99,3.99-6.8,15.72.2.22-7,4.43-8.8,6.64-7.61,7.53-4.4,7.09,3.8,5.54,8.81,11.07,10,1.55,6.4-3.32,12.99.66,8.19-1.33,12.38-8.19,12.77,2.88,16.35-7.53,7.77-1.33,13.15-6.64,10.95,2.21,7.16,4.65,5.57,11.07,1.19,5.54,4.57,1.99,7.36-.22,9.93-3.54,12.12-6.87,4.17-18.83-4.96-9.08.99-6.2-1.99-5.09-5.36-10.85-3.77-.22-16.3-4.21-3.38h-6.64l-24.81,7.16-3.54,4.17-3.32,12.52-9.97,11.91-.67,21.43,3.54,3.57-4.65,7.93,4.21,5.15,23.92,7.13,1.77,4.16-1.99,8.32-7.31,7.52-3.54,12.26,3.54,7.32,10.85,11.07,3.32,6.72-3.54,7.31-7.31,4.54-11.07,4.15-8.64-.2-.22-8.49-2.66-6.32-14.17-14.42-3.54-21.95-6.42-4.35-10.41-1.78-11.52,1.98-22.81,10.68-9.74-4.55-5.54,3.17-.22,11.67-9.08,7.51-29.9-.4-11.52-5.93-3.32-4.74-5.32-13.65-8.19-5.15-1.99-9.7-1.55-36.46-7.09,1.19-3.99,7.54-4.87.2-11.96-12.49-12.85,1.59-4.87,4.76-4.65,9.12-1.99,9.32,5.98,7.53v13.86l3.32,13.46-1.11,13.25-7.75,16.01-3.77,13.62-5.54,6.71-5.98,3.55-4.65,11.64-19.05,13.21-4.87,7.29-.44,13.39-2.88,8.07-8.19,3.35-6.64,5.11-1.33,4.33,4.65,13.17-8.42,7.86,4.87,13.55,4.87,5.1,8.19,2.55,3.1,6.28-1.11,6.47-6.42,12.75-8.42,10.19-16.39-5.29-8.2,2.35-1.33-4.9,2.66-9.21-.44-6.47-10.63-23.95-3.54-3.73-15.06-8.06-8.42-1.77,5.98-13.37,7.53-9.24,3.77-8.85-6.64-8.66-16.17-1.77-4.65-5.32-8.86,4.92-4.65-.2-19.71-10.24-16.61-24.44-7.31-7.5-14.17-6.51-7.53-10.07-.22-18.97,4.21-19.58.89-10.89-1.11-20-3.76-5.35-10.85-.59-11.07,2.38-7.09,3.96-7.75,10.7,2.66,2.97-1.55,7.33-12.85,9.1-12.84,17.21-5.54,3.76-17.05,5.14-7.75,8.89v4.54l5.98,5.33,7.75,15,.66,13.81-5.54,12.22-11.52,10.05-8.19,1.58-4.43,5.91-1.99,19.28-6.64,11.4-4.21,2.36-18.6,4.13-6.64,8.45-.67,7.27-5.31.2-1.55,7.66-3.32,1.77-13.51-1.37-12.4-4.52-9.97.59-5.32-8.05-7.97-6.09-26.8-6.68-4.21,2.36-5.54,8.05-13.29,3.93-15.5,11.39-8.19,2.94-19.71-2.16-10.85,5.89-16.17,6.67-16.39,1.57-14.17-5.3-11.74-13.15-10.19-26.52-17.72-19.86-5.98-2.76-5.98,4.33-4.87-1.97.22-13.78,4.65-9.85-3.99-3.94-20.82-4.73-2.21-6.31,2.21-12.82,4.65-13.61,9.3-17.97-5.98-10.28-9.3-9.89-5.09-8.7,8.42-12.47,1.55-10.1-2.66-7.33-3.99-1.78-38.98-10.3-17.5-.4-16.61,3.17-22.37,15.45-17.05,2.58-8.19,2.57-8.42,7.32-12.85,17.41-.89,7.51,5.54,15.61,3.76,3.16,6.2-1.18,1.33,8.69-6.64,7.11-16.83,11.05-13.29,15.77-8.42,4.34-8.86-3.94-11.96.39-11.96,2.96-6.2,3.74,6.2-15.38-7.31-10.85.89-4.54,22.15-11.84,12.18-1.18,3.76-23.91,3.76-8.5Z" pointer-events="none"/>
</svg>