<?xml version="1.0" encoding="UTF-8"?>
<svg id="Calque_1" data-name="Calque 1" xmlns="http://www.w3.org/2000/svg" xmlns:xlink="http://www.w3.org/1999/xlink" viewBox="0 0 611.4 343.91">
  <defs>
    <style>
      .cls-1 {
        fill: #a4c520;
      }

      .cls-2 {
        fill: #fff;
      }

      .cls-3 {
        fill: none;
      }

      .cls-4 {
        clip-path: url(#clippath-1);
      }

      .cls-5 {
        clip-path: url(#clippath);
      }
    </style>
    <clipPath id="clippath">
      <rect class="cls-3" width="611.4" height="343.91"/>
    </clipPath>
    <clipPath id="clippath-1">
      <rect class="cls-3" width="611.4" height="343.91"/>
    </clipPath>
  </defs>
  <g class="cls-5">
    <g class="cls-4">
      <path class="cls-2" d="M95.11,120.72l-6.92-1.66-2.06,10.79c-.27,1.4-2.06,3.11-2.91,4.25-2.13,2.83-3.87,5.44-5.87,8.51,2.34,3.13,3.45,6.83,5.92,9.44,3.2,3.4,6.73,6.29,9.32,10.02,2.04,2.93,3.53,6.07,5.31,9.23l-9.13,17.64c-2.46,4.76-3.12,10.07-4.94,15.08-.3.84-.75,1.74-.89,2.59l-1.18,7.42c-.12.73,1.3,7.36,3.15,7.79l17.77,4.13c3.61.84,1.63-.77,6.16,3.71-.94,3.58-3.46,6.39-4.01,9.85-.75,4.64-.23,9.24-.49,14.04l5.65,2.34,5.72-4.31c3.09.77,6.4,2.92,8.43,5.3,4.82,5.62,10.01,10.69,14.51,16.6l4.78,11.54c1.95,4.72,2.95,10.1,6.1,14.35,3.35,4.51,6.7,10.87,11.64,12.96l14.32,6.08c22.49-2.65,13.83-.58,32.81-8.26,4.11-1.66,7.62-4.02,11.66-6.04l19.04,2.3c3.02-.98,6.83-1.57,9.49-3.42l14.94-10.42c3.94-2.75,9.11-2.72,13.81-4.32l5.03-7.16c.69-.98,1.94-1.66,3.04-2.27,1.26-.7,2.38-.75,3.81-.31,6.03,1.83,11.87,3.13,18.08,4.3,1.91.36,4.64.68,6.16,1.73,2.54,1.78,4.73,3.51,7.04,5.53,1.45,1.26,2.45,3.49,3.69,5l3.11,3.81,7.07-1.03c1.32-.19,2.76-.01,4.01.45,13.57,5.06,7.9,3.53,22.31,5.1,2.01.22,5.16.24,6.44-1.57,1.43-2.03,1.32-4.89,1.98-7.29l5.1-.08.88-7.73,6.5-8.12,17.69-3.84c2.65-.58,5.22-2.45,6.61-4.66,1.86-2.94,3.76-5.98,5.38-8.93l2.14-19.42c5.62-8.11,3.93-4.73,12.96-7.62,3.69-3.19,8.87-5.67,11-9.88l6.05-11.93c-1.29-4.82.26-9.6-1.26-14.1-1.43-4.25-4.1-8.08-5.88-12.24-.79-1.84-2.14-3.37-3.59-4.67l-3.87-3.46c-.06-.9-.05-2.9.29-3.74l7.23-8.45,16.22-4.94c6.48-1.97,9.49-8.96,13.55-13.07,2.4-2.43,3.94-5.81,6.6-8.08,3.58-3.06,7.57-5.3,11.4-8.17.86-.65,1.08-2.09,1.45-3.19.55-1.59,1.53-3.55.9-5.24-.34-.91-2.14-1.85-2.05-3.13.06-.89,1.4-2.02,2.11-2.67,2.33-2.12,3.25-5.51,5.82-7.36,1.85-1.33,4.22-2.99,6.42-3.51l11.18-2.68c1.1-7.02,1.34-3.3,2.04-10.88l.36-3.87c3.68-1.21,6.93-2.65,10.31-4.05,2.12-.88,3.66-1.21,5.14-3.31l6.37-9.06c-3.31-1.86-6.55-3.42-10.14-4.78-1.33-.51-1.87-2.04-2.48-3.28-1.62-3.26-5.37-11.37-5.67-14.65-.3-3.19,2.48-6.3,2.55-13.48.05-5.18,1.73-5.77.26-7.47l-2.81-3.26c-.06-.09-.32.05-.56.3l-9.65,8.74-1.32,6.67-2.42,9.46c-.58,2.28-1.41,4.19-2.92,5.96-.92,1.09-1.87,2.31-3.15,2.97-1.77.91-4.71,1.43-5.58,3.25-1.05,2.19-1.78,3.7-4.51,3.93-2.8.24-4.93,3.01-7.59,3.78-6.72,1.95-13.43,3.44-20.34,5.05-1.32-1.26-2.39-3.19-3.9-3.48l-9.13-1.76c-2.46-.47-4.78-3.92-13.1-6.29-4.9-1.39-8.39,1.7-11.71-1.2-3.21-2.81-3.82-1.19-9.09-1.35-2.5-.08-3.3,1.17-4.74,2.66-2.33,2.42-5.63,3.63-8.61,5.41,0,1.59-.03,3.39.19,4.95l.58,3.98-7.77,4.83-6.94,4.63c-2.4,1.6-5.17,3.22-8.2,3.35l-5.62.24c-1.98.09-3.76-.3-5.46,1.02-5.11,3.99-10.61,7.19-16.42,10.2-.9,1.76-2.38,2.85-3.64,4.2-1.92,2.04-3.58,3.39-6.32,4.35-2.59.9-3.94,4.74-8.47,1.52-1.07-.76-2.23-1.71-3.39-2.09-4.66-1.52-8.94-3.19-13.1-5.69-1.45-.87-3.2-.54-4.43.58l-4.5,4.12c-1.93,1.77-2.77,3.79-3.15,6.68l-3.83-1c-2.77.18-5.93.5-8.41,1.8l-4.42,2.32c-.25.13-.65.63-.67.88-.02.25.38.87.62.99l4.42,2.32c.25,4.24-5.69,4.78-8.64,5.16-1.89.79-5.01,5.06-6.6,3.84-.37-1.84-.04-6.01-2.25-6.44-1.54-.3-3.67,4.13-5.42,2.55-3.82-3.44-4.92.27-5.97-.73-.7-.67-1.27-2.22-1.65-1.99l-.99.6c-2.53,1.52-5.96,2.2-8.42,3.96-4.32,3.75-8.78,6.8-14.38,8.74-1.68.58-3.44,1.28-5.28.46l.33-8.14c.13-3.23-2.16.49-7.51,1.58-1.92.39-3.97.78-5.57,1.93-.89.64-2.01,2.74-2.11,3.81l-.52,5.3c-3,2.05-6.4,2.43-9.73,1.1-3.65,3.95-5.08,6.87-9.1,10.88.14,3.02,2.29,3.76-.05,6.22l1.08,3.07-3.17,1.89.8,2.09-6.13,4.26c-.08,2.78-1.21,4.44-3.41,5.95-3.84,2.64-3.56-.47-6.87,3.19l-.22,2.91c-1.43,2.9-3.76,5.02-6.39,6.67-1.73,1.08-3.45,1.35-5.41,1.92-2.57.75-4.84,2.85-7.25,4.13-1.92,1.02-3.81-.62-4.66-2.37-.84-1.75-1.92-2.89-3.11-4.42-2.27-2.91-3.09-9.6-5.77-12.52-1.21-1.32-2.72-2.4-3.75-3.85-1.8-2.53-2.25-5.67-3.74-8.34-1.54-2.75-4.76-4.73-6.5-7.33-.76-4.6-1.65-12.51-5.14-15.87l-3.31.19c-.91-1.67-2-2.25-3.73-2.81l-1.68-4.52c.83-1.75,1.95-4.66.6-6.47-2.24-2.99-4.36-5.86-6.43-9.07-1.87-2.9-2.06,1.68-6.28.57-2.96-.78-5.89-.49-9.06-1.25"/>
      <path d="M95.11,120.72c3.17.76,6.1.47,9.06,1.25,4.22,1.11,4.41-3.47,6.28-.57,2.07,3.21,4.19,6.07,6.43,9.07,1.35,1.81.24,4.72-.6,6.47l1.68,4.52c1.73.56,2.82,1.14,3.73,2.81l3.31-.19c3.49,3.35,4.38,11.27,5.14,15.87,1.74,2.59,4.96,4.58,6.5,7.33,1.49,2.66,1.94,5.81,3.74,8.34,1.03,1.45,2.53,2.53,3.75,3.85,2.68,2.92,3.5,9.61,5.77,12.52,1.19,1.53,2.27,2.67,3.11,4.42.84,1.75,2.74,3.39,4.66,2.37,2.41-1.28,4.68-3.38,7.25-4.13,1.97-.57,3.68-.84,5.41-1.92,2.64-1.65,4.97-3.76,6.39-6.67l.22-2.91c3.32-3.66,3.03-.55,6.87-3.19,2.2-1.51,3.33-3.18,3.41-5.95l6.13-4.26-.8-2.09,3.17-1.89-1.08-3.07c2.34-2.46.19-3.2.05-6.22,4.02-4.01,5.45-6.93,9.1-10.88,3.33,1.33,6.73.95,9.73-1.1l.52-5.3c.1-1.07,1.22-3.16,2.11-3.81,1.61-1.15,3.65-1.54,5.57-1.93,5.35-1.09,7.64-4.81,7.51-1.58l-.33,8.14c1.84.82,3.6.12,5.28-.46,5.6-1.94,10.06-4.98,14.38-8.74,2.46-1.76,5.9-2.44,8.42-3.96l.99-.6c.38-.23.95,1.32,1.65,1.99,1.05,1,2.16-2.71,5.97.73,1.75,1.58,3.88-2.85,5.42-2.55,2.21.43,1.88,4.6,2.25,6.44,1.59,1.22,4.71-3.05,6.6-3.84,2.95-.38,8.89-.92,8.64-5.16l-4.42-2.32c-.23-.12-.63-.73-.62-.99.02-.25.42-.75.67-.88l4.42-2.32c2.48-1.3,5.63-1.62,8.41-1.8l3.83,1c.38-2.89,1.22-4.91,3.15-6.68l4.5-4.12c1.23-1.13,2.99-1.45,4.43-.58,4.16,2.5,8.45,4.18,13.1,5.69,1.16.38,2.32,1.32,3.39,2.09,4.53,3.22,5.88-.62,8.47-1.52,2.74-.96,4.41-2.31,6.32-4.35,1.27-1.35,2.75-2.44,3.64-4.2,5.82-3.01,11.31-6.21,16.42-10.2,1.7-1.33,3.47-.94,5.46-1.02l5.62-.24c3.03-.13,5.8-1.75,8.2-3.35l6.94-4.63,7.77-4.82-.58-3.98c-.23-1.56-.2-3.36-.19-4.95,2.98-1.78,6.28-2.99,8.61-5.41,1.43-1.49,2.24-2.74,4.74-2.66,5.27.17,5.89-1.45,9.09,1.35,3.31,2.9,6.81-.19,11.71,1.2,8.31,2.36,10.64,5.81,13.1,6.28l9.13,1.76c1.52.29,2.58,2.22,3.9,3.48,6.91-1.61,13.63-3.1,20.34-5.05,2.66-.77,4.79-3.54,7.59-3.78,2.73-.24,3.46-1.75,4.51-3.93.87-1.82,3.81-2.34,5.58-3.25,1.28-.66,2.23-1.88,3.15-2.97,1.51-1.78,2.33-3.68,2.92-5.96l2.42-9.46,1.32-6.67,9.65-8.74c.24-.25.5-.38.56-.3l2.81,3.26c1.47,1.7-.21,2.29-.26,7.47-.06,7.18-2.84,10.29-2.55,13.48.31,3.27,4.05,11.39,5.67,14.65.61,1.23,1.15,2.77,2.48,3.28,3.59,1.36,6.84,2.91,10.14,4.78l-6.37,9.06c-1.48,2.1-3.01,2.43-5.14,3.31-3.37,1.4-6.63,2.84-10.31,4.05l-.36,3.87c-.7,7.58-.94,3.86-2.04,10.88l-11.18,2.68c-2.2.53-4.57,2.18-6.42,3.51-2.57,1.86-3.49,5.24-5.82,7.36-.71.65-2.05,1.78-2.11,2.67-.09,1.28,1.71,2.22,2.05,3.13.63,1.69-.35,3.65-.9,5.24-.38,1.1-.59,2.54-1.45,3.19-3.83,2.88-7.82,5.11-11.4,8.17-2.66,2.27-4.2,5.66-6.6,8.08-4.06,4.11-7.07,11.1-13.55,13.07l-16.22,4.94-7.23,8.45c-.34.84-.35,2.84-.29,3.74l3.87,3.46c1.45,1.3,2.81,2.82,3.59,4.67,1.78,4.16,4.45,7.99,5.88,12.24,1.52,4.5-.04,9.29,1.26,14.1l-6.05,11.93c-2.13,4.21-7.32,6.69-11,9.88-9.03,2.88-7.34-.49-12.96,7.62l-2.14,19.42c-1.62,2.95-3.52,5.98-5.38,8.93-1.39,2.21-3.96,4.08-6.61,4.66l-17.69,3.84-6.5,8.12-.88,7.73-5.1.08c-.66,2.39-.55,5.26-1.98,7.29-1.27,1.81-4.42,1.79-6.44,1.57-14.41-1.57-8.74-.04-22.31-5.1-1.24-.46-2.68-.64-4.01-.45l-7.07,1.03-3.11-3.81c-1.24-1.52-2.25-3.75-3.69-5-2.31-2.02-4.5-3.75-7.04-5.53-1.52-1.06-4.24-1.37-6.16-1.73-6.2-1.18-12.04-2.47-18.08-4.3-1.43-.43-2.56-.38-3.81.31-1.09.61-2.35,1.29-3.04,2.27l-5.03,7.16c-4.71,1.6-9.87,1.57-13.81,4.32l-14.94,10.42c-2.65,1.85-6.46,2.44-9.49,3.42l-19.04-2.3c-4.04,2.02-7.55,4.38-11.66,6.04-18.98,7.68-10.32,5.61-32.81,8.26l-14.32-6.08c-4.94-2.1-8.29-8.45-11.64-12.96-3.15-4.25-4.14-9.63-6.1-14.35l-4.78-11.54c-4.5-5.91-9.7-10.98-14.51-16.6-2.03-2.37-5.34-4.53-8.43-5.3l-5.72,4.31-5.65-2.34c.26-4.8-.26-9.4.49-14.04.56-3.45,3.08-6.27,4.01-9.85-4.53-4.49-2.55-2.87-6.16-3.71l-17.77-4.13c-1.85-.43-3.26-7.06-3.15-7.79l1.18-7.42c.13-.84.58-1.75.89-2.59,1.81-5,2.47-10.32,4.94-15.08l9.13-17.64c-1.77-3.16-3.26-6.29-5.31-9.23-2.59-3.73-6.12-6.62-9.32-10.02-2.46-2.62-3.57-6.31-5.92-9.44,2-3.07,3.74-5.69,5.87-8.51.85-1.13,2.64-2.84,2.91-4.25l2.06-10.79,6.92,1.66ZM392.19,174.28l1.24-.2c1.85-.29,3.7-.53,5.09-.23.33,3.93,1.25,7.2,2.26,10.43-2.61,5.66-1.24,7.32-.22,11.03l4.32,15.65c1.64,5.93,2.64,11.9,3.86,17.99l.71,3.56c.56,2.8,1.17,5.33,3.11,7.58l4.15-5.07,9.07-2.26c3.32-3.41,7.68-5.78,10.4-9.7,2.11-3.03,4.22-7.46,4.96-11.23.76-3.9.25-9.17-.46-12.98-1.83-5.03-4.46-9.57-7.05-14.19-1.43-2.54-4.29-3.92-6.33-6.03l.09-5.01,8.15-9.31,8.24-2.45,6.43-1.9c8.36-2.46,9.95-8.6,15.58-14.43,2.07-2.14,3.46-5.03,5.74-6.99,3.81-3.26,8.03-5.74,12.02-8.75l1.27-6.22-2.67-3.62c1.47-2.03,2.79-3.71,4.47-5.46,1.61-1.68,2.62-4.3,4.53-5.74,2.12-1.6,4.85-3.03,7.37-3.97,3.25-1.2,6.85-1.34,10.22-2.31l1.9-5.79-.09-1.79c1.5-3.84-.42-6.89,2.2-7.39,3.38-.65,6.18-2.13,9.31-3.46,1.65-.7,3.19-.99,4.36-2.59l6.3-8.63c-2.87-1.62-5.77-2.99-8.86-4.12-1.32-.48-2.07-1.44-2.68-2.66l-2-4.01c-2.02-4.05-3.43-8.32-4.71-12.73l1.73-5.76c.51-1.69.73-3.14.88-4.83.05-.62.35-1.7.31-2.34-.36-6.13,2.89-5.43-1.99-9.25-3.01,2.67-5.71,5.05-8.4,7.96-.8,1.51-.45,4.21-1.03,5.69-.58,1.49-1.21,2.85-1.66,4.37-.93,3.21-1.26,6.54-2.85,9.53-1.04,1.94-2.79,4.23-4.55,5.48-1.73,1.22-4.03,1.53-5.69,2.87l-1.53,3.25c-1.34.99-3.09,1.52-4.74,1.89-2.41.54-4.19,2.78-6.51,3.45-6.97,2.02-13.91,3.55-21.03,5.23-1.28-1.22-2.48-3.37-4.02-3.66l-9.15-1.75c-2.46-.47-6.35-5.11-13.62-6.32-5.43-.91-8.37,1.89-11.49-1.41-1.38-1.46-2.84-1.46-4.69-1.18-1.54.24-3.29.13-4.85.17-1.58.05-2.15,2.21-3.21,3-2.4,1.78-4.96,2.97-7.67,4.47-1.11,4.29,2.12,8.28-.65,9.89l-6.6,3.82c-2.78,1.61-.28,2.89-1.41,6.89,2.17,1.5,4.4,3.08,6.5,4.68l4,3.07c-5.43,4.4-10.39,9.31-14.68,14.89-1.1,1.43-2.7,1.64-4.53,1.83-1.11.11-2.33,2.14-3.28,2.48-4.33,1.54-1.59,1.25-6.88,5.04,2.56.32,5.42-3.36,7.79-1.21.89.8,1.23,1.82,1.15,3.12-.08,1.39.2,2.57.27,3.93l.31,6.03.91,6.24c-2.94.79-5.26,2.13-6.75,4.49l-.92.32c-1.46.51,2.97,3.55,2.14,6.83-.41,1.62.24,2.9,1.29,4.03l-1.09,3.2c2.19,3.02,4.84-.64,5.75-.02.32.22.82.88,1.16,1.21l3.8,3.79c6.64,6.62,3.34,9.86,5.2,9.57M354.63,183.39c7.78-2.24,4.67-3.63,10.94-6.79l.33-2.66,3.25-1.37c-2.04-1.83-3.24-2.55-5.57-3.84.34-1.03,1.25-2.19,2.03-3.22,1.03-1.36.89-3.84,2.52-4.84,1.36-.83,2.45-1.94,2.34-3.63l4.54,2.72c.7-.36,1.38-1.79,1.47-2.63.07-.69-.69-1.68-1.36-2.44,1.4-6.54-1.62-4.42-2.81-11.51l2.28,1.15c3.09-3.75,7.07-2.88,6.04-6.1-.8-2.52-.75-4.92-.75-7.51,0-1.81-.57-3.68-.43-5.7.08-1.09-.55-4.13-2.22-3.53l-5.76,2.1c-.4.14-1.36-.46-1.51-.79-.12-.28.48-.87.78-.99,2.14-.84,3.43-2.58,5.22-3.96.94-.72,2.73-.85,3.49-2.04.92-1.42,2.4-1.27,3.7-1.74,2.02-.72,3.63-3.03,5.13-4.65,1.89-2.04,3.64-4.06,5.6-5.93l5.12-4.89c-3.21-3.05-6.32-5.3-9.92-7.61.69-1.68.66-3.62.08-5.37-3.26,2.26-9.7,6.69-13.49,6.85l-6.56.28c-1.62.07-3.17-.03-4.67,1.11-4.95,3.77-10.21,6.81-15.68,9.81-1.17,1.6-2.75,3.18-4.2,4.61-4.33,4.28-5.62,3.25-10.98,7.12l1.34,4.17c.35,1.1.19,3.56-.41,4.61-.83,1.43-2.16,2.18-3.7,3.46l3.91,3.69c-1.2,1.87-1.76,3.38-1.55,5.26,2.65-.96,4.57-1.17,6.91-.49l1.19,3.29c1.03-.72,1.88-1.39,2.51-1.27.75.15,1.91.8,2.23,1.38l1.98,3.5-1.52,8.46-1.52,8.33c-.09.49-3.76,4.81-1.62,8.25,1.36,2.19,1.22,4.33.46,6.5-.7,2.02-1.18,4.01-2.69,5.69-.29.33-.72,1.24-.54,1.59.15.28.62.78.91,1.01l3.68,2.77,2.08,4.23c2.94-.86,5.37-1.06,7.95.31,1.08-2.22.9-4.82-.54-6.75M324.43,213.53c-.55.46-1.9,1.75-1.74,2.41.26,1.07,1.45,2.58,1.89,3.56.94,2.07,2.06,3.34,3.77,4.83l3.47,3.01c4.02-3.19,9.22-2.51,9.85-5.78-1.64-4.32-2.63-8.72-1.77-13.36.27-1.44,3.91-3.94,3.23-5.89-.44-1.26-3.54-2.97-2.66-4.02,3.97-4.71,7.85-2.62,6.75-6.34-2.23-7.51-7.8-8.61-7.49-10.47.3-1.85,1.81-1.69,3.36-7.08.43-1.48.91-3.02.24-4.56l-1.75-4.04c1.94-4.88,2.57-7.7,3.27-12.54.05-.34.7-1.16.79-1.47,1.45-5.43,2.82-9.29-1.66-13.37l-2.97,2.01-1.58-3.85c-4.36-1.14-5.17,1.47-7.39.03-.22-.14.17-.81.27-1.15l1.29-4.25-4.07-3.49c1.43-1.12,3.1-2.09,4.05-3.32,1.61-2.1.55-4.91-.1-7.05-.48-1.59-1.38-1.7-2.74-2.5l-5.16-3.03c-4.15-2.44-8.97-3.05-13.13-5.66-1.05-.66-2.52-.4-3.38.42l-4.08,3.9c-5.7,5.44-.05,7.7-6.95,6.48-4.63-.82-9.34.73-12.8,3.78l4.62,2.6-1.02,3.44c2.16.92,4.64,1.75,6.83,2.2-2.68,3.8.11,4.28-3.8,9.18,1.43,1.08,3.06,2.48,3.51,3.66l-.68,2.44-1.37,1.21c1.72,1.35,2.88,2.3,4.39,3.77l-2.94,1.59.8,2.05-1.53.21c-1.18.16.54,1.47-2.63,3.45-.59.37-.17,1.93.2,2.65l.31,1.36c.06.27.98.48,1.26.56l2.53.73.55,5.29,4.6.11.63,4.07c.12.79.69,1.89,1.32,1.95l3.89.34,2.1,5.98,4.55,1.26c1.9.53,3.88,4.92,4.49,6.67l.92,2.64c-.33,4.43-.46,13.12,1.3,17.26l4.77,4.21c.24.21.64,1.01.43,1.18l-.85.72ZM124.57,196.65c.03-.38.66-1.31,1-1.75-3.94-1.77-2.94-7.72-2.2-7.91,3.39-.9,3.75.1,5.28-1.11,2.21-1.75.88-5.27,3.3-6.37.6-.57,4.97,3.46,5.95.54l1.29-3.85-3.5-8.21c-1.18-2.77-7.02-6.47-7.06-8.6-.08-4.68-1.22-8.83-3.12-13.05-1.21-2.68-3.73.74-5.16-2.06-.55-1.09-1.68-1.48-3.04-1.55l-2.37-6.12c2.41-2.76,1.35-5.53-.61-7.81-1.87-2.18-3.31-4.69-5.07-7.25-1.95,1.61-3.51,2.09-5.68,1.49-5.34-1.48-7.08-.11-14.18-2.59l-1.93,9.83c-.53,2.7-6.71,9.03-8.45,12.37,1.21,2.07,4.06,6.71,5.31,8.08l8.8,9.58c.73.8,6.21,9.74,6.28,11.28l-8.84,17.04c-4.19,8.07-5.65,17.09-7.08,26.1l2.08,5.8,16.25,3.75.47-4.66c4.58-2.91,9.5-2.33,14.59-5.44l4.51-2.76c2.62-1.6-.17-4.15,1.7-8.36.43-.97,2.15-.36,2.6.36.57.92.97,1.37,2.29,2.21l-.72-4.25c-.22-1.29-2.05-3.36-2.7-4.7M299.67,249.07l2.68,1.62c2.65,5.18-2.44,5.92,2.84,8.83l3.79,2.08c.47-.86,1.05-2.24,1.51-3.4,2.28.79,5.16,1.64,7.72,1.13l3.82-6.86c2.91-1.06,1.66-1.09,3.13-3.89.22-2.27,1.15-4.46,4.01-4.65l1.35-6.3c.35-1.63,3.25-1.25,3.67-2.95.13-.53-.06-1.65-.28-2.23-2.85-7.55-7.81-7.64-9.67-11.44l-2.56-5.23,2.31-3.16c-.72-1.97-2.83-2.94-4.11-4.53-2.37-2.98-2.04-13.51-1.86-17.68-1.05-3.67-1.86-5.53-4.19-8.6-1.56-.85-3.69-.83-5.09-1.76-1.57-1.05-1.62-4.86-2.69-5.87-.56-.53-4.38.6-4.87-.92l-.91-5.27-4.57-.19-.73-5.69c-1.37-.14-3.75-.37-3.96-1.55l-.78-4.48c1.83-.28,2.69-1.34,2.68-3.05l1.52-1.09-1.12-2.47,3.4-.04c-1.45-1.66-2.63-2.48-4.34-3.73,1.1-1.23,2.08-2.92,2.01-4.46l-3.51-3.05c1.06-1.43,2.13-2.73,2.48-4.28l1-4.39-5.88-2.02c-2.54,1.64-5.17,2.15-8.1,2.67-1.8.32-3.12,2.81-4.74,3.41l-2.7,1c-1.98-2.3-.06-3.88-1.93-7.19l-2.72,2.3c-.84.71-3.36.74-4.15-.06-.93-.93-1.69-1.19-2.67-.72-1.11.54-.73,1.85.02,2.86-.59.96-1.4,2.33-2.18,3.19l-4.97,5.41,4.59,4.59,1.5,3.16,2.74.5c-.46,2.39-1.17,4.39-2.05,6.64-1.78,4.59-2.82,8.64-3.55,13.68-.3,2.09.25,4.64-1.6,6.22l-4.85,4.12c.78.64,1.58,1.44,1.89,2.18l1.5,3.59,2.9.71c1.01-2.02,2.15-3.36,4.63-3.99.09,4.54,5.33,2.18,2,6.26l2.33,2.7c.61.71,2.24-1.17,2.65-2.25l4.2,3.57c-1.28,1.04-1.84,2.04-1.26,3.62.29.78.98,1.78,1.5,2.2,2.34,1.94,4.35-2.98,6.88,0,.81.96,2.24,2.64,2.61,3.78-.66,4.43.1,4.59-2.16,7.91-.61.9-1.67,2.55-1.17,3.51,2.3,4.38-.34,2.61,2.9,8.68.71,1.34,1.44,2.53,2.3,3.74l.8,1.13c.21.3,2.91-.42,3.2.8.13.55.25,1.44.31,2.09.33,3.7,3.14,6.46,5.47,8.87l-.77,2.14c-.16.45,1.09,1.06,1.47,1.36l5.61,4.36c.05.6-.48,1.46-1.23,2.83M249.83,179c8.5-5.06,6.37-6.87,7.12-10.79,1.32-6.98,1.29-6.88,3.57-13.45l1.96-5.64-2.74-.48c-.45-.91-.9-2.56-1.47-3.17l-4.75-5.11,5.93-6.55c.48-.53,1.07-2.14.8-2.79-.21-.5-2.35-3.28-2.57-3.2l-1.34.53c-.26.1-11.04,4.44-8.85,5.26l.83.31c.14.05.42-.46.53-.38.12.09.61.41.52.5l-.5.52-5.69,5.81c-1.96,2.01-3.74,4.04-5.26,6.51-.48.79.59,2.89,1.25,3.54l4.27,4.18c1.23,1.21,2.89,2.3,3.35,3.96,2.03,7.38-2.06,3.14,2.24,15.8.36,1.07-.74,5.55.79,4.63M226.48,198.94c-.27.23-.38,1.56-.04,1.5.26-.05.73-.17,1.07-.29l1.41-.53c1.75-.66-.45,2.56,1.08,3.33,3.42,1.7,2.25-3.53,4.67-5.18l4.77-3.25c.69-.47,2.53-.43,3.33-1.31l.93,2.94c2.63.18,2.83-1.77,3.39-3.46,1.09-3.28,3.94-5.46,6.7-7.5-1.93-5.79-1.87-3.83-5.78-6.85,1.72-6.2-2.81-5.86-1.36-15.45.21-1.4-.25-4.39-1.23-5.33l-5.41-5.2c-1.38-1.32-3.15-3.3-2.94-5.34,1.92-3.26,4.42-6.18,7.21-8.59,1.47-1.27,2.5-2.49,3.69-4.12-.75-.09-1.6-.1-1.92.14-3.02,2.21-14.61,9.08-17.89,6.43-.66-2.69-.12-5.76-.05-8.82-4.54,2.86-8.13,2.27-11.03,4.06-3.91,2.43-.38,8.02-3.72,9.85-5.72,3.14-8.73.16-9.95,1.69l-6.76,8.46c-.74.93-.84,3.66.57,3.68,3.03.06,6.1-.09,9.02-.34.89-1.46,2.52-2.82,3.87-2.38.2.92.8,2.63,1.49,3.09,1.04.69,2.4-2.24,3.22-1.4.3.3.67.76,1.32,1.54l2.06-1.48c2.03.21,3.58,1.55,5.27,2.63,1.9,1.21,3.37,2.31,4.73,4.02l1.88,2.37c-2.12,5.45-2.13,7.68-4.13,13.93-.43,1.33-.51,3.05-1.4,4.09-1.16,1.35-1.89,3.19-.61,4.63l2.62.37c.22,2.17,3.44,1.86,1.41,3.11-2.47,1.52.77,3.06-1.47,4.95M229.7,248.74c.58.86,1.58.9,2.48,1.13.62.16,1.65,1.05,2.28.9.81-.19,1.53-1.24,1.61-2.06l.41-3.91c3.13-1.85,1.31-6.27.03-9.14-4.95-11.03.03-6.81.69-17.64.12-1.97,1.88-4.08,2.85-6.24l-3.25-6.23-4.41.22c-1.48.07.66-1.94-3.95-2.73l.45-2.72c-1.08.33-2.24.86-2.83.66-1.17-.39-.52-2.11.13-2.88,1.08-1.27-.65-3.15.18-3.8l1.06-.82-1.68-1.73c-.35-.36-1.7-.48-2.12-.77-1.59-1.08-1.04-3.82,0-5.39,1.39-2.09,3.14-9,3.78-11.81.43-1.9,1.31-4.15,1.83-5.91l-3.27-3.83c-.92-1.08-2.95-1.71-3.96-2.76-1.22-1.27-3.28-2.07-4.61-1.06-.4.3-1.51,1.15-1.75.77l-1.08-1.75-2.25,2.02c-1.6-.69-2.17-1.62-2.97-3.74-.9.68-2.04,1.72-2.98,2.67l-7.83.38c-.86.04-1.93.77-2.34,1.63-.75,1.61,1.77,2.96.21,4.12l-2.41,1.8,1.34,1.63-6.79,4.64c-.45.31-.38,1.75-.57,2.19-.99,2.2-3.33,4.93-5.84,5.51-1.49.34-3.91-.15-4.1,1.99-.13,1.38-.3,2.81-1.18,3.93-1.83,2.32,2.48,3.87,3.37,6.07l1.8,4.44c.37.91-.37,3.21.11,4.19,1.22.46,3.31.36,4.28,1.01l7.24,4.87c2.3-.9,3.32-3.96,6.81-2.51l5.73,2.37c-.45,2.37.48,3.92,1.66,5.55,3.4,4.67,5.73.27,11.2,5.18-.33,4.58-.36,8.96-1.43,13.36-.51,2.1-3.12,2.59-5.08,3.85.85,1.46,2.19,3.49,3.33,4.73,2.86,1.13,5.2,2.24,7.68,3.94,3.64,2.49,4.13.67,6.14,3.66M301.42,265.23c-.74,3.86-1.95,7.7-4.64,10.41-.95.96-1.79,1.46-2.17,2.95l11.13,2.43c2.43.53,5.63.76,7.81,2.04,3.1,1.83,6.02,4.21,8.58,6.73.73.72,5.18,7,6.01,7.47,2.92-.22,6-1.48,8.75-.86,4.49,1,8.39,3.87,12.96,4.36l11.64,1.25c1.32.14,3.73-.21,4.59-1.22l1.82-8.2,5.03.49.57-6.9,7.06-8.84,18.2-3.93c1.2-.26,3.25-1.51,4.17-2.19l2.59-3.64c1.47-2.06,3.01-4.62,4.25-6.96l2.16-19.91c-.93-1.8-2.26-3.67-2.64-5.62l-3.23-16.73-.96-2.3-2.82-11.76c-1.03-4.28-2.1-8.3-3.54-12.42-.91-2.61,1.02-5.48.92-7.89-.13-3.18-1.6-6.04-1.98-9.8l-5.45.79c-1.04.15-1.66-1.76-1.65-2.63.05-3.14-2.09-5.17-4.25-6.98-.83-.7-1.65-2.44-2.66-2.85-1.18-.48-1.39-.56-1.9-2.13l-3.06,1.25c-2.43-.56-4.7-1.64-7.23-2.97-6.14,5.05-3.47,4.45-5.41,7.82l-.86,1.49c-.45.78,2.36,1.91,4.17,3.92.24.27.17,1.43-.16,1.54l-1.23.41c-.54.18-1.1.37-1.38.57-.54.38.57,2.72-1.69,3.56-4.45,1.65-2.63,3.77-8.89,5.77l.43,2.69c.21,1.27-.23,3.14-.47,4.78-2.98-1.44-5.58-1.94-8.68-.72l1.05,2.66c-1.01,2.92-3.42,1.55-7.35,5.62l2.87,3.15c.67,2.89-3.14,4.98-3.4,6.81-.51,3.56,0,10.24,2.35,12.62-1.89,4.55-5.89,2.97-10.22,6.27.47,3.05,3.03,4.18,2.01,8.15l-3.35,1.67-1.44,7c-7.07,1.13-1.1,7.04-7.22,8.55-.91,1.42-1.98,3.25-2.74,4.87-1.96,4.16-4.42,2.04-9.14,1.39-.28,1.23-.89,2.95-1.92,3.14-2.03-1.24-3.76-2.29-6.19-3.43l-1.2,6.26ZM105.78,252.75l4.12,1.46,5.37-4.02c4,.7,7.3,2.85,9.97,5.36,1.61-2.73,3.18-5.25,5.31-6.95,1.62-1.3,2.92-2.21,2.38-4.74l3.13,1.39c-.16-2.83.86-4.55,3.13-5.66l5-2.45,5.08-5.99,1.42-6.92c.39-1.89.83-3.33,1.02-5.03l2.8,1.32c1.27.6,2.38,1.1,3.65,2.09,1.29,1,4.62,2.61,5.81.83l1.93-5.94c.51-1.56.64-4.2.83-5.93-.27-.45-1.3-.97-2.08-1.38,1.11-1.11,2.7-2.42,3.66-3.58,2.8-3.37-2.7-7.13-4.12-10.41-2.43,1.13-4.75,3.16-7.15,3.98-2.01.68-4-1.38-4.75-2.83-.99-1.92-2.86-3-3.59-4.81l-4.27-10.54c-.84-2.07-2.69-3.2-4.69-5.19l-1.21,3.76c-.26.8-2.36,1.5-3.1,1.13l-3.41-1.66c-1.74,2.04-.99,6.63-4.46,7.02l-3.41.38c-.44,1.86-.2,4.17.53,5.81.23.52,1.76.84,2.17.53,2.38-1.8,1.48-2.98,3.66-3.29l-2.63,3.95-2.78,1.91c3.13,5.05,2.97,3.01,3.44,8.72.03.35-.52,1.3-.85,1.24-.26-.05-.86-.37-1.07-.62l-2.31-2.74-.71,3.18c-.56,1.26-.77,2.56.34,3.53-.31.32-1.05,1.36-1.5,1.67-6.2,4.41-8.01,5.29-15.81,7.03-2.95.66-4.61,3.39-3.56,6.18l3.32.61,4.17,4.28c-5.58,13.16-4.57,7.89-4.78,23.34M281.38,279.85c1.09-1.54,3.97-3.28,5.78-3.16,2.29.15,4.64,1.08,6.49,1.38l2.65-2.9c3.98-4.36,4.25-9.84,5.56-15.34.28-1.19.32-2.07.24-3.35-.11-1.71,1.24-3.89-.65-5.47l-2.95-1.7,1.91-2.62-5.58-4.15-1.6-1.19c-.38-.28-.07-1.28.09-1.84.7-2.48-.37-.62-3.05-4.98-1.36-2.2-2.02-4.26-2.17-7.02l-3.23-.17c-1.28-1.68-2.19-3.77-3.19-5.75-3.06-6.07-.36-5.59-3.32-8.38l.42-2.33c2.45-2.34,3.48-5.64,3.32-9.29-.97-1.42-2.74-5.31-4.77-3.64-1.35,1.11-3.3,1.55-4.65.22-1.22-1.2-1.81-3.31-1.94-4.89l1.47-1.12-2.72-2.65c-1.16.99-1.92,1.6-2.97,2.3-.62-.32-1.66-.85-1.99-1.27l-1.77-2.26.99-2.26-2.76-3.11c-1.99.44-2.81,3.84-3.59,3.65l-1.16-.29c-.8-.2-2.56-.07-3.31.45-7.19,4.98-4,7.81-7.38,9.81-.5.3-1.6.77-1.95.43-.31-.29-.76-1.21-1.09-1.57-1.24-1.35-3.43-.06-4.57,1.12l-3.3,1.92-2.45,6.56,5.03.1,3.73,6.57c-4.57,6.95-2.36,8.5-4.41,13.44-.79,1.91-3.34,2.23.69,10.56,3.95,8.15-.37,7.88-.6,13.1-.06,1.27-.44,2.04-1.63,2.81.74,1.25,1.86,2.73,2.48,4.07l4.79,10.3c.5,1.08.46,2.29,2.03,2.34.68.02,1.62.91,1.65,1.51.16,3.02,2.56.96,5.74,2.54,3.22,1.6,3.06-2.49,5.89-.83,1.99,3.96,5.47,6.75,5.86,10.14-1.7,3.78,2.34,8.1,2.56,8.11.32.01,1.02-.09,1.41-.21l8.99-2.63,4.97-7.04ZM181.55,234.93c1.1-.67,1.95-.92,2.27-2.2l2.1-1.57c1.84,1.04,3.06,1.4,4.97,1.28,3.08-.2,1.88-2.83,3.45-3.2,2.13-.5,3.07,3.21,5.91.95,4.59-3.66,8.15,2.59,11.49,5.39,1.64-.02,4.62-1.37,5.13-3.28,1.06-3.97,1.48-8.31,1.34-12.34-.75-2.45-4.11-2.6-6.12-2.78-4.1-.38-6.78-4.48-6.75-8.37l-4.08-1.7c-.76-.32-2.18-.56-3.11-.8l-4.23,3.15c-5.67-2.79-6.57-6.54-13.08-5.62.33-1.97.74-4.22.18-5.74l-1.22-3.33c-.67-1.82-2.85-3.56-4.22-4.8-4.06,3.52-5.57,4.87-11,5.94,1.68,3.44,6.74,6.41,4.68,10.68-.5,1.04-2.29,2.3-3.18,3.16l1.48,1.11c-.4,2.33-.37,4.97-1.06,7.11-1.27,3.91-2.02,5.55-2.22,10.24l-3.29,1.3c-1.08-.41-1.57-.56-3.24-.72l1.36,2.82-.55,3.64c2.83,1.66-.52,4.57,1.79,6.13.46.31,1.19.37,1.88.49.87,1.22,2.06,2.36,3.55,3.06l2.28-6.38c3.06,3.08,10.65-1.89,13.51-3.63M163.04,257.28c3.84-.75,6.82,2.23,7.54-1.32l.76-3.74,1.27-.97c.24-.19-.3-1.23-.19-1.57.36-1.06.81-3.15.67-4.56-3.12-.17-5.33-.26-8.07.46l-3.23-2.56c-1.27-1.01-3.36-1.38-2.96-3.58.25-1.43-.46-2.78-.91-4.06-.45-1.29,1.04-3.33-.08-4.58-.4-.45-.71-1.63-.58-2.14.45-1.74,3.56.96,5.38-.56,1.03-.86.89-2.93.08-3.43l-3.01-.24c-1.29-.87-2.62-1.93-3.85-2.53l-3.52-1.7-2.45,11.17-5.29,6.38c-1.8,1.07-4.32,1.76-6.12,3.02-2.88,2.02-.36,7.04-4.42,4.28-.61,1.81-1.67,3.2-3.3,4.41-1.25.92-5.24,5.46-4.75,7.31l14.15,15.88,2.91,7.82c2.54-.9,4.62-1.99,7.05-2.7,1.74-.51,3.99.02,5.72-1.07-1.53-2.72-3.68-5.86-3.13-8.84.48-2.62,3.06-3.49,5.07-4.06l2.68-2.66c.93-.92,1.66-2.59,2.6-3.86M217.67,303.64c.65-.28,1.83-1.12,2.34-1.06l18.97,2.36c2.83-1.1,6.32-1.69,8.85-3.26,4.75-2.95,8.87-6.43,13.44-9.65,1.13-.8,2.3-1.33,3.83-2.07-4.9-4.36-1.15-8.21-3.45-11.23-1.86-2.44-3.25-4.57-4.97-7.29l-3.08,2.04-3.86-.94c-1.41-.34-3.4-.48-4.44-1.1.26-3.29-1.91-2.06-3.41-3.49-.26-.25-.04-1.47-.24-1.86-1.33-2.63-2.85-5.84-4.04-8.71-.88-2.15-2.17-4.22-3.52-5.82-.92.08-1.58-.3-2.18-1.16l-2.01,1.47.42-1.41-2.44-2.6c-6.2-2.1-4.84-3.29-11.32-5.6-2.38-.85-4.46-6.85-11.22-11.78-1.51-1.1-3.66-.62-5.08.35-3.1,2.1-3.63-.72-5.77-1.1l-1.58,3.13c-2.32.43-4.44.15-7.02-.66l1.88,5.71-.54,2.59c2.32,2.58,1.39,5.29,5.14,4.5,1.34,2.08.8,4.41-.61,6.54-3,4.55-3.05.52-8.43,3.65-.6.35-.09,2.07.44,2.49,2.51,2.03-.47,3.85,1.7,5.15,3.81,2.3-.71,6,.88,6.87,1.23.67,2.47-1.65,6.91-3.45l2.23-.9c-.12,1.2-.21,2.21-.07,2.94,2.84,1.79,4.8,4.66,6.14,7.34.15.31.8.76,1.08.76,1.35,0,.51-2.35,1.73-2.31.32.01.85.26,1.12.5,4.91,4.33,5.51,3.2,5.87,7.95.21,2.87,2.72,1.39,2.66,3.93l-.18,7.8-.33,4.08c3.12,1.83,2.64,5.97,4.14,5.32M212.86,298.66l.25-4.25.24-8.37-2.04-1.73c-.85-.72-.37-3.01-.91-4.13-.7-1.46-2.46-2.55-3.59-3.61l-1.72-1.61c-.62,1.1-1.33,1.76-2.51,1.88-2.57.26-2.69-5.97-7.83-7.54l-.33-2.56c-6.65,1.58-4.54,4.44-8.91,3.54-1.11-2.41,1.6-3.79.71-5.79-.24-.53-1.01-1.17-1.75-1.6-2.39-1.41.5-1.89-1.49-5.13-.48-.78-.8-2.28-.46-3.1,5.91-3.15,6.03.48,8.7-3.82.89-1.44,1.55-3.35.93-4.96-3.84.49-3.63-2.46-5.73-5.49,1.07-3.99.22-3.67-1.15-7.81-1.28,2.77-11.38,7.73-14.73,7.62l-2.37-.08-1.38,4.21,6.51-.13c.78,1.68.37,3.5,0,5.32-.1.51.25,1.65,0,2.08-.21.37-1.02,1.01-1.14,1.44l-.82,2.92c-.25.88-.62,1.79-1.12,2.12-1.84,1.21-5.73-1.29-6.95.31l-3.32,4.38c-.57.76-1.29,1.78-2.29,1.87-2.35.21-3.9,1.51-4.18,3.91-.33,2.88,1.47,5.63,3.6,8.03-1.81,1.74-4.27,1.38-6.5,1.84-2.37.5-4.42,1.52-6.9,2.77,2.7,5.87,4.01,11.82,7.02,17.26,2.74,4.95,7.67,8.14,10.82,13.07,20.62,6.44,8.86,5.57,30.59,3.39,3.41-.34,6.46-2.72,9.66-3.78,5.21-1.73,9.7-4.06,14.61-6.81-.58-2.31-1.78-3.95-3.58-5.67"/>
      <path class="cls-1" d="M299.67,249.07c.75-1.37,1.28-2.23,1.23-2.83l-5.61-4.36c-.39-.3-1.64-.9-1.47-1.36l.77-2.14c-2.33-2.41-5.14-5.17-5.47-8.87-.06-.65-.18-1.55-.31-2.09-.29-1.22-2.99-.5-3.2-.8l-.8-1.13c-.85-1.21-1.58-2.4-2.3-3.74-3.23-6.06-.6-4.29-2.89-8.68-.5-.96.56-2.61,1.17-3.51,2.27-3.32,1.5-3.49,2.16-7.91-.37-1.15-1.8-2.83-2.61-3.78-2.53-2.99-4.54,1.93-6.88,0-.52-.43-1.21-1.43-1.5-2.2-.58-1.58-.03-2.58,1.26-3.62l-4.2-3.57c-.41,1.09-2.04,2.96-2.65,2.25l-2.33-2.7c3.33-4.07-1.91-1.72-2-6.26-2.48.63-3.62,1.96-4.63,3.99l-2.9-.71-1.5-3.59c-.31-.74-1.11-1.54-1.89-2.18l4.85-4.12c1.86-1.58,1.3-4.13,1.6-6.22.73-5.04,1.77-9.09,3.55-13.68.88-2.26,1.58-4.25,2.05-6.64l-2.74-.5-1.5-3.16-4.59-4.59,4.97-5.41c.78-.85,1.59-2.22,2.18-3.19-.75-1.01-1.13-2.32-.02-2.86.98-.48,1.74-.21,2.67.72.8.8,3.31.77,4.15.06l2.72-2.3c1.87,3.31-.05,4.89,1.93,7.19l2.7-1c1.61-.6,2.93-3.09,4.74-3.41,2.93-.52,5.56-1.03,8.1-2.67l5.88,2.02-1,4.39c-.35,1.54-1.42,2.85-2.48,4.28l3.51,3.05c.07,1.54-.91,3.24-2.01,4.46,1.71,1.25,2.88,2.07,4.34,3.73l-3.4.04,1.12,2.47-1.52,1.09c0,1.71-.86,2.77-2.68,3.05l.78,4.48c.2,1.17,2.59,1.41,3.96,1.55l.73,5.69,4.57.19.91,5.27c.49,1.52,4.31.4,4.87.92,1.08,1.01,1.12,4.83,2.69,5.87,1.4.93,3.53.9,5.09,1.76,2.34,3.07,3.15,4.93,4.19,8.6-.18,4.17-.51,14.7,1.86,17.68,1.27,1.6,3.39,2.56,4.11,4.53l-2.31,3.16,2.56,5.23c1.86,3.8,6.82,3.88,9.67,11.44.22.58.41,1.69.28,2.23-.42,1.7-3.32,1.32-3.67,2.95l-1.35,6.3c-2.87.19-3.79,2.38-4.01,4.65-1.47,2.81-.22,2.83-3.13,3.89l-3.82,6.86c-2.56.5-5.44-.35-7.72-1.13-.46,1.16-1.04,2.54-1.51,3.4l-3.79-2.08c-5.28-2.9-.19-3.65-2.84-8.83l-2.68-1.62Z"/>
      <path class="cls-1" d="M281.38,279.85l-4.97,7.04-8.99,2.63c-.4.12-1.1.23-1.41.21-.22,0-4.26-4.33-2.56-8.11-.39-3.4-3.87-6.19-5.86-10.14-2.83-1.65-2.67,2.44-5.89.83-3.18-1.58-5.58.48-5.74-2.54-.03-.6-.97-1.49-1.65-1.51-1.57-.05-1.52-1.25-2.03-2.34l-4.79-10.3c-.62-1.34-1.74-2.82-2.48-4.07,1.18-.76,1.57-1.54,1.63-2.81.23-5.22,4.55-4.95.6-13.1-4.04-8.33-1.49-8.65-.69-10.56,2.05-4.95-.16-6.5,4.41-13.44l-3.73-6.57-5.03-.1,2.45-6.56,3.3-1.92c1.14-1.18,3.33-2.47,4.57-1.12.33.36.78,1.27,1.09,1.57.36.34,1.46-.13,1.95-.43,3.38-2.01.18-4.83,7.38-9.81.75-.52,2.51-.65,3.31-.45l1.16.29c.78.2,1.6-3.21,3.59-3.65l2.76,3.11-.99,2.26,1.77,2.26c.33.42,1.37.95,1.99,1.27,1.04-.7,1.8-1.31,2.97-2.3l2.72,2.65-1.47,1.12c.13,1.58.72,3.69,1.94,4.89,1.35,1.33,3.3.88,4.65-.22,2.03-1.67,3.8,2.22,4.77,3.64.16,3.66-.86,6.95-3.32,9.29l-.42,2.33c2.95,2.79.25,2.32,3.32,8.38,1,1.98,1.92,4.07,3.19,5.75l3.23.17c.14,2.75.81,4.82,2.17,7.02,2.68,4.35,3.75,2.49,3.05,4.98-.16.56-.47,1.56-.09,1.84l1.6,1.19,5.58,4.15-1.91,2.62,2.95,1.7c1.89,1.58.54,3.76.65,5.47.08,1.28.04,2.16-.24,3.35-1.32,5.51-1.59,10.98-5.56,15.34l-2.65,2.9c-1.85-.3-4.2-1.23-6.49-1.38-1.81-.12-4.69,1.61-5.78,3.16"/>
      <path class="cls-1" d="M124.57,196.65c.65,1.34,2.48,3.41,2.7,4.7l.72,4.25c-1.33-.84-1.72-1.28-2.29-2.21-.44-.71-2.17-1.33-2.6-.36-1.87,4.21.92,6.76-1.7,8.36l-4.51,2.76c-5.08,3.11-10,2.53-14.59,5.44l-.47,4.66-16.25-3.75-2.08-5.8c1.43-9.01,2.89-18.02,7.08-26.1l8.84-17.04c-.07-1.54-5.55-10.48-6.28-11.28l-8.8-9.58c-1.25-1.37-4.1-6.01-5.31-8.08,1.74-3.34,7.92-9.66,8.45-12.37l1.93-9.83c7.09,2.48,8.83,1.11,14.18,2.59,2.17.6,3.74.12,5.68-1.49,1.76,2.56,3.2,5.08,5.07,7.25,1.95,2.28,3.01,5.05.61,7.81l2.37,6.12c1.36.07,2.48.46,3.04,1.55,1.43,2.8,3.95-.62,5.16,2.06,1.9,4.22,3.04,8.37,3.12,13.05.04,2.13,5.88,5.83,7.06,8.6l3.5,8.21-1.29,3.85c-.98,2.92-5.35-1.11-5.95-.54-2.43,1.1-1.09,4.62-3.3,6.37-1.53,1.21-1.88.2-5.28,1.11-.74.2-1.74,6.14,2.2,7.91-.34.45-.97,1.37-1,1.75"/>
      <path class="cls-1" d="M212.86,298.66c1.81,1.71,3,3.36,3.58,5.67-4.92,2.76-9.4,5.09-14.61,6.81-3.2,1.06-6.26,3.44-9.66,3.78-21.73,2.19-9.98,3.05-30.59-3.39-3.15-4.93-8.08-8.12-10.82-13.07-3.01-5.44-4.32-11.39-7.02-17.26,2.47-1.25,4.52-2.27,6.9-2.77,2.23-.47,4.69-.11,6.5-1.84-2.14-2.4-3.94-5.15-3.6-8.03.28-2.4,1.82-3.7,4.18-3.91,1-.09,1.71-1.11,2.29-1.87l3.32-4.38c1.21-1.6,5.11.9,6.95-.31.5-.33.87-1.25,1.12-2.12l.82-2.92c.12-.43.93-1.08,1.14-1.44.25-.43-.11-1.57,0-2.08.36-1.82.78-3.63,0-5.32l-6.51.13,1.38-4.21,2.37.08c3.35.11,13.45-4.86,14.73-7.62,1.37,4.14,2.22,3.82,1.15,7.81,2.1,3.03,1.88,5.98,5.73,5.49.62,1.61-.04,3.52-.93,4.96-2.67,4.3-2.79.66-8.7,3.82-.35.82-.02,2.32.46,3.1,2,3.24-.9,3.72,1.49,5.13.73.43,1.51,1.06,1.75,1.6.89,2.01-1.82,3.38-.71,5.79,4.37.91,2.26-1.95,8.91-3.54l.33,2.56c5.14,1.57,5.26,7.8,7.83,7.54,1.18-.12,1.89-.78,2.51-1.88l1.72,1.61c1.13,1.05,2.89,2.15,3.59,3.61.53,1.12.06,3.41.91,4.13l2.04,1.73-.24,8.37-.25,4.25Z"/>
      <path class="cls-1" d="M217.67,303.64c-1.5.65-1.02-3.49-4.14-5.32l.33-4.08.18-7.8c.06-2.54-2.45-1.06-2.66-3.93-.35-4.75-.96-3.62-5.87-7.95-.27-.24-.8-.49-1.12-.5-1.23-.05-.39,2.3-1.73,2.31-.28,0-.92-.45-1.08-.76-1.33-2.67-3.3-5.54-6.14-7.34-.14-.73-.06-1.74.07-2.94l-2.23.9c-4.44,1.8-5.68,4.12-6.91,3.45-1.58-.87,2.94-4.57-.88-6.87-2.17-1.3.81-3.12-1.7-5.15-.52-.42-1.03-2.14-.44-2.49,5.37-3.13,5.42.9,8.43-3.65,1.41-2.13,1.95-4.45.61-6.54-3.75.79-2.82-1.92-5.14-4.5l.54-2.59-1.88-5.71c2.58.81,4.71,1.09,7.02.66l1.58-3.13c2.14.38,2.67,3.2,5.77,1.1,1.42-.96,3.58-1.45,5.08-.35,6.76,4.93,8.84,10.93,11.22,11.78,6.47,2.32,5.12,3.51,11.32,5.6l2.44,2.6-.42,1.41,2.01-1.47c.59.86,1.25,1.24,2.18,1.16,1.35,1.6,2.63,3.67,3.52,5.82,1.18,2.88,2.71,6.08,4.04,8.71.19.38-.03,1.61.24,1.86,1.5,1.43,3.67.2,3.41,3.49,1.03.62,3.03.76,4.44,1.1l3.86.94,3.08-2.04c1.73,2.72,3.12,4.85,4.97,7.29,2.3,3.02-1.45,6.87,3.45,11.23-1.53.74-2.7,1.27-3.83,2.07-4.57,3.22-8.69,6.71-13.44,9.65-2.53,1.57-6.02,2.16-8.85,3.26l-18.97-2.36c-.51-.06-1.7.78-2.34,1.06"/>
      <path class="cls-1" d="M229.7,248.74c-2.01-2.99-2.5-1.16-6.14-3.66-2.48-1.7-4.82-2.81-7.68-3.94-1.13-1.25-2.48-3.28-3.33-4.73,1.96-1.26,4.57-1.75,5.08-3.85,1.07-4.4,1.1-8.78,1.43-13.36-5.47-4.92-7.8-.51-11.2-5.18-1.19-1.63-2.11-3.18-1.66-5.55l-5.73-2.37c-3.49-1.44-4.5,1.62-6.81,2.51l-7.24-4.87c-.97-.65-3.06-.55-4.28-1.01-.48-.98.26-3.28-.11-4.19l-1.8-4.44c-.89-2.2-5.2-3.75-3.37-6.07.88-1.11,1.05-2.55,1.18-3.93.2-2.14,2.61-1.64,4.1-1.99,2.51-.58,4.85-3.31,5.84-5.51.2-.44.13-1.88.58-2.19l6.79-4.64-1.34-1.63,2.41-1.8c1.56-1.16-.97-2.51-.22-4.12.4-.86,1.47-1.59,2.34-1.63l7.83-.38c.94-.94,2.08-1.99,2.98-2.67.8,2.12,1.37,3.05,2.97,3.74l2.25-2.02,1.08,1.75c.23.38,1.35-.46,1.75-.77,1.34-1.01,3.39-.21,4.61,1.06,1.01,1.05,3.04,1.69,3.96,2.76l3.27,3.83c-.52,1.75-1.4,4.01-1.83,5.91-.64,2.81-2.39,9.72-3.78,11.81-1.05,1.57-1.6,4.3,0,5.39.42.29,1.77.41,2.12.77l1.68,1.73-1.06.82c-.83.65.89,2.53-.18,3.8-.65.77-1.3,2.49-.13,2.88.59.2,1.75-.33,2.83-.66l-.45,2.72c4.62.79,2.48,2.81,3.95,2.73l4.42-.22,3.25,6.23c-.98,2.15-2.73,4.26-2.85,6.24-.66,10.82-5.64,6.61-.69,17.64,1.28,2.86,3.1,7.29-.03,9.14l-.41,3.91c-.09.82-.81,1.87-1.61,2.06-.62.15-1.65-.74-2.28-.9-.89-.23-1.9-.27-2.48-1.13"/>
      <path class="cls-1" d="M105.78,252.75c.21-15.45-.8-10.17,4.78-23.34l-4.17-4.28-3.32-.61c-1.05-2.79.6-5.53,3.56-6.18,7.8-1.74,9.62-2.62,15.81-7.03.45-.32,1.19-1.35,1.5-1.67-1.12-.97-.9-2.27-.34-3.53l.71-3.18,2.31,2.74c.21.25.81.57,1.07.62.33.06.87-.89.85-1.24-.47-5.71-.31-3.67-3.44-8.72l2.78-1.91,2.63-3.95c-2.18.31-1.28,1.49-3.66,3.29-.41.31-1.94-.01-2.17-.53-.72-1.64-.97-3.95-.53-5.81l3.41-.38c3.47-.39,2.72-4.98,4.46-7.02l3.41,1.66c.75.36,2.85-.33,3.1-1.13l1.21-3.76c2,1.99,3.85,3.12,4.69,5.19l4.27,10.54c.74,1.81,2.6,2.9,3.59,4.81.75,1.45,2.75,3.51,4.75,2.83,2.4-.82,4.73-2.84,7.15-3.98,1.42,3.28,6.92,7.04,4.12,10.41-.97,1.16-2.56,2.47-3.66,3.58.79.41,1.82.92,2.08,1.38-.19,1.73-.32,4.37-.83,5.93l-1.93,5.94c-1.19,1.79-4.52.18-5.81-.83-1.26-.99-2.37-1.49-3.65-2.09l-2.8-1.32c-.2,1.7-.64,3.14-1.02,5.03l-1.42,6.92-5.08,5.99-5,2.45c-2.27,1.11-3.29,2.83-3.13,5.66l-3.13-1.39c.54,2.52-.76,3.44-2.38,4.74-2.13,1.71-3.7,4.22-5.31,6.95-2.67-2.52-5.97-4.66-9.97-5.36l-5.37,4.02-4.12-1.46Z"/>
      <path class="cls-1" d="M226.48,198.94c2.24-1.9-1-3.44,1.47-4.95,2.03-1.25-1.2-.94-1.41-3.11l-2.62-.37c-1.27-1.44-.55-3.28.61-4.63.89-1.04.97-2.76,1.4-4.09,2-6.26,2.01-8.48,4.13-13.93l-1.88-2.37c-1.36-1.71-2.83-2.81-4.73-4.02-1.69-1.08-3.24-2.42-5.27-2.63l-2.06,1.48c-.65-.78-1.02-1.24-1.32-1.54-.82-.83-2.18,2.09-3.22,1.4-.69-.45-1.29-2.17-1.49-3.09-1.35-.44-2.98.92-3.86,2.38-2.91.25-5.99.4-9.02.34-1.41-.03-1.31-2.76-.57-3.68l6.76-8.46c1.22-1.53,4.23,1.45,9.95-1.69,3.34-1.83-.19-7.42,3.72-9.85,2.89-1.79,6.49-1.21,11.03-4.06-.07,3.06-.61,6.13.05,8.82,3.28,2.65,14.88-4.22,17.89-6.43.32-.23,1.17-.23,1.92-.14-1.19,1.63-2.22,2.85-3.69,4.12-2.79,2.41-5.29,5.33-7.21,8.59-.22,2.04,1.56,4.02,2.94,5.34l5.41,5.2c.98.94,1.44,3.93,1.23,5.33-1.45,9.59,3.08,9.25,1.36,15.45,3.91,3.01,3.85,1.05,5.78,6.85-2.76,2.03-5.61,4.22-6.7,7.5-.56,1.69-.76,3.64-3.39,3.46l-.93-2.94c-.8.88-2.64.84-3.33,1.31l-4.77,3.25c-2.42,1.65-1.25,6.88-4.67,5.18-1.53-.76.67-3.98-1.08-3.32l-1.41.53c-.34.13-.81.25-1.07.29-.34.06-.24-1.27.03-1.5"/>
      <path class="cls-1" d="M181.55,234.93c-2.85,1.74-10.44,6.71-13.51,3.63l-2.28,6.38c-1.49-.71-2.68-1.84-3.55-3.07-.7-.12-1.42-.18-1.88-.49-2.31-1.56,1.04-4.47-1.79-6.13l.55-3.64-1.36-2.82c1.66.15,2.15.31,3.24.72l3.29-1.3c.21-4.69.96-6.33,2.22-10.24.69-2.14.67-4.78,1.06-7.11l-1.48-1.11c.89-.86,2.68-2.11,3.18-3.16,2.05-4.28-3.01-7.25-4.68-10.68,5.43-1.08,6.94-2.42,11-5.94,1.37,1.23,3.55,2.97,4.22,4.8l1.22,3.33c.56,1.52.15,3.77-.18,5.74,6.51-.91,7.41,2.84,13.08,5.62l4.23-3.15c.93.24,2.34.48,3.11.8l4.08,1.7c-.03,3.89,2.65,7.99,6.75,8.37,2.01.19,5.37.34,6.12,2.78.14,4.02-.27,8.37-1.34,12.34-.51,1.9-3.49,3.26-5.13,3.28-3.35-2.8-6.9-9.04-11.49-5.39-2.83,2.26-3.77-1.45-5.91-.95-1.58.37-.38,3-3.45,3.2-1.9.12-3.13-.23-4.97-1.28l-2.1,1.58c-.31,1.28-1.17,1.53-2.27,2.2"/>
      <path class="cls-1" d="M163.04,257.28c-.95,1.28-1.67,2.94-2.6,3.86l-2.68,2.66c-2.01.57-4.59,1.44-5.07,4.06-.54,2.97,1.6,6.12,3.13,8.84-1.73,1.09-3.98.56-5.72,1.07-2.42.71-4.51,1.8-7.05,2.7l-2.91-7.82-14.15-15.88c-.49-1.85,3.5-6.39,4.75-7.31,1.64-1.21,2.7-2.6,3.31-4.41,4.06,2.76,1.53-2.26,4.42-4.28,1.8-1.26,4.32-1.96,6.12-3.02l5.29-6.38,2.45-11.17,3.52,1.7c1.24.6,2.56,1.65,3.85,2.53l3.01.24c.81.5.95,2.56-.08,3.43-1.83,1.53-4.94-1.17-5.38.56-.13.51.17,1.69.58,2.14,1.12,1.25-.37,3.29.08,4.58.45,1.28,1.16,2.63.91,4.06-.39,2.2,1.69,2.57,2.96,3.58l3.23,2.56c2.74-.72,4.96-.63,8.07-.46.14,1.41-.31,3.5-.67,4.56-.12.34.43,1.39.19,1.57l-1.27.97-.76,3.74c-.72,3.55-3.7.58-7.54,1.32"/>
      <path class="cls-1" d="M249.83,179c-1.53.91-.43-3.57-.79-4.63-4.3-12.65-.21-8.42-2.24-15.8-.46-1.66-2.12-2.76-3.35-3.96l-4.27-4.18c-.66-.64-1.73-2.75-1.25-3.54,1.52-2.47,3.29-4.51,5.26-6.51l5.69-5.81.5-.52c.09-.09-.4-.41-.52-.5-.12-.09-.39.43-.53.38l-.83-.31c-2.19-.82,8.59-5.15,8.85-5.26l1.34-.53c.21-.09,2.36,2.7,2.57,3.2.28.65-.32,2.26-.8,2.79l-5.93,6.55,4.75,5.11c.57.61,1.02,2.26,1.47,3.17l2.74.48-1.96,5.64c-2.28,6.57-2.25,6.46-3.57,13.45-.74,3.92,1.39,5.73-7.12,10.79"/>
      <path class="cls-2" d="M392.19,174.28c-1.86.3,1.44-2.95-5.2-9.57l-3.8-3.79c-.34-.33-.84-1-1.16-1.21-.91-.62-3.56,3.04-5.75.02l1.09-3.2c-1.05-1.13-1.7-2.41-1.29-4.03.83-3.29-3.6-6.32-2.14-6.83l.92-.32c1.49-2.36,3.8-3.7,6.75-4.49l-.91-6.24-.31-6.03c-.07-1.37-.35-2.54-.27-3.93.08-1.3-.26-2.32-1.15-3.12-2.38-2.15-5.24,1.53-7.79,1.21,5.29-3.79,2.56-3.5,6.88-5.04.94-.34,2.17-2.36,3.28-2.48,1.83-.19,3.43-.4,4.53-1.83,4.3-5.57,9.25-10.49,14.68-14.89l-4-3.07c-2.09-1.6-4.32-3.18-6.5-4.68,1.13-3.99-1.37-5.28,1.41-6.89l6.6-3.82c2.77-1.61-.47-5.6.65-9.89,2.71-1.5,5.27-2.69,7.67-4.47,1.07-.79,1.63-2.95,3.21-3,1.56-.05,3.31.06,4.85-.17,1.85-.28,3.31-.29,4.69,1.18,3.12,3.3,6.06.5,11.49,1.41,7.28,1.21,11.17,5.85,13.62,6.32l9.15,1.75c1.54.29,2.73,2.44,4.02,3.66,7.12-1.68,14.06-3.2,21.03-5.23,2.32-.67,4.11-2.91,6.51-3.45,1.65-.37,3.41-.89,4.74-1.89l1.53-3.25c1.66-1.35,3.96-1.65,5.69-2.87,1.76-1.24,3.51-3.53,4.55-5.48,1.6-2.99,1.92-6.32,2.85-9.53.44-1.52,1.07-2.88,1.66-4.37.58-1.48.23-4.18,1.03-5.69,2.69-2.91,5.39-5.3,8.4-7.96,4.88,3.82,1.63,3.12,1.99,9.25.04.65-.26,1.72-.31,2.34-.15,1.69-.37,3.14-.88,4.83l-1.73,5.76c1.28,4.41,2.7,8.68,4.71,12.73l2,4.01c.61,1.22,1.36,2.18,2.68,2.66,3.09,1.13,5.99,2.5,8.86,4.12l-6.3,8.63c-1.16,1.6-2.71,1.89-4.36,2.59-3.12,1.33-5.93,2.81-9.31,3.46-2.62.5-.7,3.55-2.2,7.39l.09,1.79-1.9,5.79c-3.37.96-6.97,1.1-10.22,2.31-2.53.94-5.25,2.36-7.37,3.97-1.91,1.44-2.92,4.06-4.53,5.74-1.68,1.76-3,3.43-4.47,5.46l2.67,3.62-1.27,6.22c-3.99,3.01-8.22,5.49-12.02,8.75-2.28,1.95-3.66,4.85-5.74,6.99-5.64,5.82-7.23,11.96-15.58,14.43l-6.43,1.9-8.24,2.45-8.15,9.31-.09,5.01c2.04,2.11,4.91,3.49,6.33,6.03,2.59,4.62,5.22,9.16,7.05,14.19.72,3.81,1.22,9.08.46,12.98-.74,3.77-2.85,8.2-4.96,11.23-2.72,3.92-7.08,6.29-10.4,9.7l-9.07,2.26-4.15,5.07c-1.94-2.25-2.55-4.78-3.11-7.58l-.71-3.56c-1.22-6.09-2.22-12.06-3.86-17.99l-4.32-15.65c-1.02-3.71-2.4-5.37.22-11.03-1.01-3.23-1.93-6.51-2.26-10.43-1.4-.29-3.25-.06-5.09.23l-1.24.2Z"/>
      <path class="cls-1" d="M301.42,265.23l1.2-6.26c2.42,1.14,4.15,2.19,6.19,3.43,1.03-.19,1.64-1.9,1.92-3.14,4.73.65,7.18,2.77,9.14-1.39.76-1.62,1.83-3.46,2.74-4.87,6.13-1.51.15-7.43,7.22-8.55l1.44-7,3.35-1.67c1.03-3.97-1.54-5.1-2.01-8.15,4.33-3.29,8.33-1.72,10.22-6.27-2.35-2.38-2.86-9.06-2.35-12.62.26-1.83,4.08-3.92,3.4-6.81l-2.87-3.15c3.92-4.07,6.33-2.7,7.35-5.62l-1.05-2.66c3.1-1.22,5.7-.72,8.67.72.24-1.65.68-3.51.47-4.78l-.43-2.69c6.27-2,4.44-4.11,8.89-5.77,2.26-.84,1.15-3.18,1.69-3.56.28-.2.84-.39,1.38-.57l1.23-.41c.33-.11.4-1.27.16-1.54-1.81-2.01-4.63-3.14-4.17-3.92l.86-1.49c1.95-3.37-.73-2.77,5.41-7.82,2.53,1.33,4.8,2.41,7.23,2.97l3.06-1.25c.51,1.56.72,1.65,1.9,2.13,1.01.41,1.83,2.15,2.66,2.85,2.16,1.81,4.3,3.84,4.25,6.98-.01.87.61,2.78,1.65,2.63l5.45-.79c.38,3.76,1.85,6.62,1.98,9.8.1,2.41-1.83,5.29-.92,7.89,1.44,4.12,2.51,8.13,3.54,12.42l2.82,11.76.96,2.3,3.23,16.73c.38,1.95,1.71,3.82,2.64,5.62l-2.16,19.91c-1.24,2.33-2.78,4.9-4.25,6.96l-2.59,3.64c-.92.68-2.96,1.93-4.17,2.19l-18.2,3.93-7.06,8.84-.57,6.9-5.03-.49-1.82,8.2c-.87,1.01-3.27,1.36-4.59,1.22l-11.64-1.25c-4.57-.49-8.47-3.36-12.96-4.36-2.75-.62-5.83.64-8.75.86-.83-.47-5.28-6.75-6.01-7.47-2.56-2.52-5.49-4.9-8.58-6.73-2.18-1.29-5.39-1.51-7.81-2.04l-11.13-2.43c.37-1.49,1.22-1.99,2.17-2.95,2.69-2.72,3.9-6.55,4.64-10.41"/>
      <path class="cls-1" d="M324.43,213.53l.85-.72c.2-.17-.2-.98-.43-1.18l-4.77-4.21c-1.77-4.14-1.63-12.83-1.3-17.26l-.92-2.64c-.61-1.75-2.59-6.15-4.49-6.67l-4.55-1.26-2.1-5.98-3.89-.34c-.63-.06-1.2-1.16-1.32-1.95l-.63-4.07-4.6-.11-.55-5.29-2.53-.73c-.28-.08-1.2-.3-1.26-.56l-.31-1.36c-.38-.73-.8-2.28-.2-2.66,3.17-1.98,1.45-3.29,2.63-3.45l1.53-.21-.8-2.05,2.94-1.59c-1.52-1.47-2.67-2.42-4.39-3.77l1.37-1.21.68-2.44c-.45-1.18-2.08-2.58-3.51-3.66,3.91-4.9,1.11-5.39,3.8-9.18-2.2-.45-4.67-1.28-6.83-2.2l1.02-3.44-4.62-2.6c3.46-3.05,8.17-4.6,12.8-3.78,6.9,1.22,1.25-1.04,6.95-6.48l4.08-3.9c.86-.82,2.32-1.08,3.38-.42,4.16,2.6,8.98,3.21,13.13,5.66l5.16,3.03c1.37.8,2.26.92,2.74,2.5.65,2.14,1.71,4.96.1,7.05-.95,1.24-2.63,2.21-4.05,3.32l4.07,3.49-1.29,4.25c-.1.33-.49,1-.27,1.15,2.22,1.44,3.03-1.18,7.39-.03l1.58,3.85,2.97-2.01c4.48,4.07,3.11,7.94,1.66,13.37-.08.31-.74,1.13-.79,1.47-.7,4.84-1.33,7.65-3.27,12.54l1.75,4.04c.67,1.54.18,3.07-.24,4.56-1.55,5.39-3.06,5.23-3.36,7.08-.31,1.86,5.27,2.96,7.49,10.47,1.1,3.73-2.78,1.63-6.75,6.34-.88,1.04,2.22,2.75,2.66,4.02.68,1.95-2.96,4.45-3.23,5.9-.86,4.65.13,9.04,1.77,13.36-.63,3.27-5.83,2.59-9.85,5.78l-3.47-3.01c-1.71-1.49-2.84-2.76-3.77-4.83-.44-.98-1.63-2.48-1.89-3.56-.16-.66,1.19-1.94,1.74-2.41"/>
      <path class="cls-1" d="M354.63,183.39c1.44,1.94,1.62,4.53.54,6.75-2.59-1.37-5.01-1.17-7.95-.31l-2.08-4.23-3.68-2.77c-.3-.22-.76-.72-.91-1.01-.19-.35.24-1.27.54-1.59,1.51-1.68,1.99-3.67,2.69-5.69.75-2.18.9-4.31-.46-6.5-2.14-3.44,1.53-7.76,1.62-8.25l1.52-8.33,1.52-8.46-1.98-3.5c-.33-.58-1.48-1.23-2.23-1.38-.63-.12-1.48.54-2.51,1.27l-1.19-3.29c-2.34-.68-4.25-.47-6.9.49-.21-1.88.35-3.38,1.55-5.26l-3.91-3.69c1.53-1.28,2.87-2.03,3.7-3.46.61-1.04.77-3.51.41-4.61l-1.34-4.17c5.36-3.87,6.65-2.84,10.98-7.12,1.45-1.43,3.03-3.01,4.2-4.61,5.47-2.99,10.73-6.04,15.68-9.81,1.5-1.15,3.06-1.04,4.67-1.11l6.56-.28c3.79-.16,10.23-4.6,13.49-6.85.58,1.74.6,3.69-.08,5.37,3.6,2.31,6.71,4.56,9.92,7.61l-5.12,4.89c-1.96,1.87-3.7,3.89-5.6,5.93-1.5,1.62-3.11,3.93-5.13,4.65-1.3.46-2.79.32-3.7,1.74-.76,1.18-2.55,1.31-3.49,2.04-1.79,1.37-3.08,3.11-5.22,3.96-.31.12-.91.71-.78.99.15.33,1.12.93,1.51.79l5.76-2.1c1.66-.61,2.29,2.44,2.22,3.53-.14,2.02.43,3.89.43,5.7,0,2.58-.05,4.99.75,7.51,1.03,3.23-2.95,2.35-6.04,6.1l-2.28-1.15c1.19,7.1,4.2,4.97,2.81,11.51.67.76,1.44,1.75,1.36,2.44-.09.84-.77,2.27-1.47,2.63l-4.54-2.72c.12,1.69-.98,2.8-2.34,3.63-1.63,1-1.49,3.47-2.52,4.84-.78,1.03-1.69,2.19-2.03,3.22,2.33,1.29,3.54,2,5.57,3.84l-3.25,1.37-.33,2.66c-6.26,3.17-3.16,4.56-10.94,6.79"/>
    </g>
  </g>
</svg>